<svg xmlns="http://www.w3.org/2000/svg" xmlns:xlink="http://www.w3.org/1999/xlink" width="500" zoomAndPan="magnify" viewBox="0 0 375 374.999991" height="500" preserveAspectRatio="xMidYMid meet" version="1.0"><defs><g/><clipPath id="e39ef97cf6"><path d="M 34.269531 82 L 171 82 L 171 167 L 34.269531 167 Z M 34.269531 82 " clip-rule="nonzero"/></clipPath></defs><path fill="#330f0f" d="M 178.679688 9.03125 C 170.210938 10.511719 163.15625 16.21875 159.011719 23.613281 C 149.347656 40.773438 153.941406 62.863281 158.53125 80.894531 C 161.199219 91.457031 164.769531 101.707031 169.238281 111.640625 C 171.507812 116.667969 174.003906 121.578125 176.730469 126.378906 C 179.042969 130.449219 181.308594 134.820312 184.71875 138.039062 C 182.292969 139.46875 180.617188 142.285156 181.941406 145.078125 C 182.519531 146.300781 184.214844 147.347656 185.773438 147.5625 C 185.730469 147.9375 185.6875 148.300781 185.628906 148.632812 L 184.023438 157.519531 C 182.953125 163.457031 181.882812 169.324219 181.304688 175.324219 C 181.277344 175.542969 181.320312 175.746094 181.433594 175.933594 C 179.742188 186.226562 178.066406 196.515625 176.414062 206.8125 C 174.84375 216.621094 173.203125 226.574219 174.304688 236.53125 C 175.179688 244.285156 177.828125 253.351562 183.894531 258.6875 C 189.183594 263.34375 196.914062 263.019531 199.308594 255.625 C 200.488281 251.964844 200.300781 247.949219 200.378906 244.160156 C 200.441406 238.945312 200.414062 233.734375 200.292969 228.527344 C 199.824219 207.867188 198.089844 187.269531 196.066406 166.710938 C 195.53125 161.265625 195.039062 155.808594 194.425781 150.367188 C 194.464844 150.351562 194.5 150.335938 194.535156 150.316406 C 197.363281 148.640625 199.058594 145.066406 197.675781 141.878906 C 196.976562 140.394531 195.90625 139.265625 194.460938 138.496094 C 194.460938 137.566406 194.460938 136.640625 194.460938 135.710938 C 195.820312 131.964844 196.601562 127.984375 197.605469 124.136719 C 199.007812 118.675781 200.367188 113.199219 201.628906 107.695312 C 204.167969 96.945312 206.152344 86.097656 207.578125 75.144531 C 208.921875 64.242188 209.601562 53.15625 208.90625 42.183594 C 208.328125 33.121094 206.164062 23.777344 200.003906 16.808594 C 194.578125 10.707031 186.800781 7.617188 178.679688 9.03125 Z M 191.394531 152.273438 L 191.929688 157.460938 C 192.355469 161.617188 192.769531 165.769531 193.171875 169.921875 C 193.949219 177.890625 194.671875 185.855469 195.3125 193.835938 C 196.539062 209.628906 197.332031 225.464844 197.234375 241.308594 C 197.207031 245.828125 198.734375 258.105469 191.917969 258.808594 C 185.183594 259.507812 180.886719 249.667969 179.289062 244.644531 C 174.585938 229.8125 178.566406 213.628906 180.929688 198.730469 C 182.308594 190.03125 183.671875 181.332031 185.011719 172.628906 C 185.777344 167.707031 186.683594 162.71875 187.335938 157.710938 C 188.003906 153.917969 188.648438 150.117188 189.324219 146.328125 C 191.21875 146.234375 191.28125 151.367188 191.394531 152.273438 Z M 191.453125 140.707031 C 191.632812 141.015625 191.886719 141.25 192.210938 141.40625 C 192.535156 141.5625 192.875 141.613281 193.230469 141.5625 C 194.476562 142.40625 195.285156 143.671875 194.773438 145.351562 C 194.578125 145.996094 194.21875 146.53125 193.703125 146.957031 C 192.769531 144.398438 190.859375 142.101562 187.8125 143.367188 C 187.15625 143.636719 186.691406 144.101562 186.414062 144.757812 C 186.21875 144.757812 186.023438 144.722656 185.835938 144.65625 C 184.230469 144.078125 184.554688 142.289062 185.542969 141.300781 C 187 139.769531 189.589844 140.066406 191.453125 140.707031 Z M 180.902344 127.441406 C 178.664062 123.601562 176.570312 119.683594 174.617188 115.695312 C 170.632812 107.542969 167.273438 99.140625 164.542969 90.484375 C 161.867188 81.988281 159.804688 73.347656 158.355469 64.558594 C 156.746094 54.921875 155.601562 44.777344 157.910156 35.148438 C 159.953125 26.636719 164.75 18.382812 172.785156 14.328125 C 173.53125 13.957031 174.292969 13.625 175.070312 13.328125 C 175.039062 13.53125 174.996094 13.734375 174.964844 13.9375 C 168.003906 15.867188 165.019531 23.410156 164.460938 30 C 163.738281 38.5625 164.386719 47.398438 165.070312 55.929688 C 165.777344 64.738281 166.96875 73.484375 168.648438 82.160156 C 172.273438 100.855469 177.929688 119.886719 186.816406 136.824219 C 186.847656 136.953125 186.875 137.082031 186.910156 137.210938 C 186.714844 137.246094 186.519531 137.292969 186.332031 137.347656 C 184.976562 133.808594 182.828125 130.742188 180.902344 127.441406 Z M 179.800781 17.066406 C 179.964844 17.515625 180.097656 17.972656 180.199219 18.441406 C 180.683594 20.4375 180.964844 22.503906 181.324219 24.523438 C 182.058594 28.578125 182.75 32.636719 183.398438 36.707031 C 185.945312 52.644531 187.878906 68.664062 189.195312 84.761719 C 190.214844 97.304688 190.855469 109.867188 191.117188 122.457031 C 190.921875 126.148438 190.722656 129.839844 190.511719 133.527344 C 190.355469 132.703125 190.152344 131.878906 190.007812 131.078125 C 189.527344 128.402344 189 125.726562 188.574219 123.050781 C 187.757812 118.011719 187.128906 112.941406 186.570312 107.878906 C 185.414062 97.445312 184.429688 87 183.328125 76.5625 C 182.234375 65.992188 181.140625 55.414062 180.039062 44.832031 L 178.386719 28.964844 C 177.96875 24.898438 177.609375 20.851562 177.886719 16.8125 C 178.535156 16.8125 179.171875 16.894531 179.800781 17.066406 Z M 183.664062 19.339844 C 185.878906 21.480469 187.15625 24.441406 187.902344 27.414062 C 189.960938 35.523438 190.53125 44.234375 191.207031 52.574219 C 191.914062 61.277344 192.242188 70.015625 192.316406 78.746094 C 192.316406 80.605469 192.316406 82.457031 192.316406 84.308594 C 190.957031 67.667969 188.941406 51.101562 186.269531 34.609375 C 185.558594 30.199219 184.796875 25.800781 183.984375 21.410156 C 183.878906 20.769531 183.789062 20.066406 183.664062 19.339844 Z M 170.9375 25.4375 C 169.402344 33.257812 170.402344 41.390625 171.660156 49.179688 C 173.085938 58.179688 174.636719 67.160156 176.136719 76.148438 C 177.820312 86.292969 179.527344 96.429688 181.25 106.566406 C 182.144531 111.808594 182.941406 117.113281 183.855469 122.390625 C 179.847656 112.398438 176.554688 102.171875 173.980469 91.71875 C 170.195312 75.875 168.066406 59.816406 167.59375 43.535156 C 167.382812 36.277344 166.109375 26.40625 171.0625 20.367188 C 171.625 19.6875 172.261719 19.085938 172.96875 18.558594 C 172.082031 20.789062 171.40625 23.082031 170.9375 25.4375 Z M 174.574219 23.757812 C 174.867188 30.332031 176.050781 36.988281 176.714844 43.316406 C 177.851562 54.25 178.996094 65.179688 180.152344 76.105469 C 180.65625 80.898438 181.144531 85.6875 181.640625 90.480469 C 181.484375 89.535156 181.332031 88.585938 181.179688 87.636719 L 177.058594 62.441406 C 175.820312 54.875 174.304688 47.296875 173.625 39.652344 C 173.269531 36.054688 173.269531 32.457031 173.625 28.859375 C 173.800781 27.132812 174.109375 25.433594 174.546875 23.757812 Z M 195.8125 17.074219 C 202.464844 23.167969 204.886719 32.175781 205.644531 40.882812 C 206.515625 50.945312 205.90625 61.222656 204.832031 71.246094 C 203.503906 82.808594 201.511719 94.253906 198.851562 105.582031 C 197.597656 111.085938 196.25 116.5625 194.847656 122.027344 C 194.6875 122.671875 194.503906 123.3125 194.3125 123.953125 C 194.3125 123.542969 194.3125 123.125 194.285156 122.707031 C 195.011719 108.65625 195.574219 94.589844 195.5 80.519531 C 195.453125 71.15625 195.113281 61.78125 194.375 52.457031 C 193.984375 47.519531 193.46875 42.597656 192.828125 37.691406 C 192.265625 33.410156 191.796875 29.011719 190.484375 24.886719 C 189.125 20.601562 186.132812 16.261719 182.046875 14.425781 C 181.691406 13.898438 181.242188 13.472656 180.699219 13.144531 C 180.007812 12.707031 179.253906 12.496094 178.433594 12.519531 L 178.464844 12.347656 C 179.992188 12.019531 181.539062 11.878906 183.097656 11.917969 C 184.660156 11.960938 186.195312 12.1875 187.703125 12.601562 C 189.207031 13.011719 190.644531 13.597656 192.011719 14.351562 C 193.378906 15.109375 194.636719 16.015625 195.785156 17.074219 Z M 195.8125 17.074219 " fill-opacity="1" fill-rule="nonzero"/><path fill="#330f0f" d="M 343.957031 125.652344 C 342.734375 125.964844 341.558594 126.410156 340.429688 126.984375 C 335.277344 125.984375 330.066406 125.179688 324.90625 124.34375 C 319.15625 123.425781 313.300781 122.679688 307.46875 123.085938 C 302.730469 123.351562 298.195312 124.457031 293.867188 126.40625 C 290.773438 127.855469 287.28125 130.0625 285.359375 133.085938 L 285.320312 133.085938 C 278.894531 133.152344 272.300781 135.378906 266.046875 136.71875 C 262.835938 137.414062 259.597656 138.109375 256.382812 138.859375 C 255.484375 139.066406 254.570312 139.261719 253.648438 139.464844 C 264.085938 134.507812 274.332031 128.269531 282.722656 120.398438 C 282.96875 120.414062 283.175781 120.335938 283.347656 120.160156 C 283.457031 120.050781 283.558594 119.941406 283.660156 119.832031 C 285.671875 120.050781 288.085938 119.296875 289.917969 118.910156 C 292.699219 118.351562 295.441406 117.648438 298.152344 116.796875 C 303.4375 115.136719 308.515625 112.984375 313.386719 110.339844 C 318.125 107.761719 322.570312 104.746094 326.722656 101.300781 C 330.589844 98.085938 334.832031 94.5 336.890625 89.832031 L 337.964844 89.832031 C 339.742188 89.832031 339.570312 87.339844 337.925781 87.15625 C 326.511719 85.851562 314.574219 89.234375 304.707031 94.914062 C 299.792969 97.738281 295.351562 101.179688 291.390625 105.234375 C 289.472656 107.199219 287.707031 109.296875 286.09375 111.519531 C 284.851562 113.238281 283.417969 115.144531 282.578125 117.183594 C 282.441406 117.257812 282.308594 117.339844 282.179688 117.429688 C 282.050781 117.46875 281.929688 117.53125 281.824219 117.617188 C 276.746094 121.453125 271.652344 125.164062 266.421875 128.601562 C 267.132812 127.878906 267.824219 127.15625 268.5 126.460938 C 272.421875 122.339844 275.90625 117.878906 278.957031 113.078125 C 281.925781 108.382812 284.414062 103.449219 286.425781 98.273438 C 287.492188 95.570312 288.382812 92.808594 289.101562 89.992188 C 289.488281 88.457031 290.175781 86.402344 290.0625 84.640625 L 291.132812 83.992188 C 291.34375 83.847656 291.484375 83.652344 291.554688 83.40625 C 291.625 83.15625 291.609375 82.917969 291.507812 82.683594 C 291.40625 82.445312 291.238281 82.269531 291.011719 82.15625 C 290.78125 82.039062 290.542969 82.007812 290.292969 82.066406 C 280.394531 84.863281 272.722656 93.808594 267.683594 102.375 C 264.730469 107.515625 262.332031 112.90625 260.480469 118.539062 C 258.875 123.1875 257.265625 128.035156 256.667969 132.960938 C 255.992188 133.617188 255.335938 134.292969 254.707031 135 C 254.53125 135.214844 254.449219 135.464844 254.46875 135.742188 C 252.609375 136.722656 250.714844 137.65625 248.789062 138.542969 C 242.738281 141.300781 236.527344 143.621094 230.152344 145.5 C 223.839844 147.382812 217.179688 148.179688 210.945312 150.210938 C 210.78125 150.265625 210.65625 150.367188 210.566406 150.511719 C 210.480469 150.660156 210.445312 150.816406 210.472656 150.984375 C 210.496094 151.15625 210.574219 151.296875 210.699219 151.410156 C 210.828125 151.523438 210.976562 151.582031 211.148438 151.589844 C 217.261719 151.835938 223.738281 150.085938 229.660156 148.433594 C 231.613281 149.03125 233.691406 149.179688 235.726562 149.449219 L 239.535156 149.933594 C 239.652344 150.335938 239.910156 150.597656 240.308594 150.722656 C 242.449219 151.433594 244.746094 151.578125 246.902344 152.328125 C 249.175781 153.214844 251.335938 154.324219 253.378906 155.65625 C 257.578125 158.25 261.523438 161.285156 266.007812 163.371094 C 270.785156 165.542969 275.796875 166.484375 281.035156 166.203125 C 283.667969 166.019531 286.277344 165.664062 288.863281 165.132812 C 290.515625 164.753906 292.1875 164.515625 293.878906 164.421875 C 295.34375 164.421875 296.582031 164.671875 298.042969 164.320312 C 299.503906 163.964844 299.3125 161.886719 298.003906 161.453125 C 286.433594 157.652344 274.832031 153.285156 262.910156 150.6875 C 257.085938 149.421875 251.179688 148.484375 245.242188 147.753906 C 242.324219 147.398438 239.402344 147.085938 236.46875 146.921875 L 234.964844 146.828125 C 239.636719 145.355469 244.214844 143.640625 248.703125 141.679688 C 251.25 141.597656 253.832031 141.054688 256.324219 140.671875 C 259.601562 140.171875 262.867188 139.601562 266.132812 139.066406 C 272.136719 138.039062 278.820312 137.621094 284.613281 135.605469 C 284.710938 135.632812 284.800781 135.617188 284.886719 135.5625 L 285.066406 135.4375 L 285.195312 135.390625 C 286.652344 136.734375 289.253906 136.910156 291.085938 137.257812 C 293.636719 137.710938 296.207031 138.019531 298.792969 138.179688 C 304.34375 138.539062 309.875 138.351562 315.386719 137.617188 C 320.574219 136.945312 325.667969 135.832031 330.667969 134.285156 C 333.3125 133.460938 335.914062 132.515625 338.472656 131.445312 C 339.859375 130.867188 341.363281 130.304688 342.753906 129.597656 L 343.289062 129.597656 C 343.519531 129.578125 343.722656 129.492188 343.894531 129.335938 C 344.066406 129.179688 344.175781 128.988281 344.222656 128.761719 C 344.597656 128.519531 344.953125 128.253906 345.292969 127.960938 C 346.425781 126.964844 345.191406 125.390625 343.957031 125.652344 Z M 287.640625 114.207031 C 289.339844 111.863281 291.203125 109.660156 293.230469 107.59375 C 297.113281 103.632812 301.46875 100.285156 306.296875 97.550781 C 315.222656 92.492188 324.9375 90.207031 335.0625 89.863281 C 331.519531 92.421875 328.574219 95.839844 325.183594 98.613281 C 320.984375 102.039062 316.5 105.042969 311.730469 107.621094 C 307.109375 110.121094 302.292969 112.160156 297.277344 113.730469 C 294.707031 114.527344 292.097656 115.203125 289.460938 115.75 C 288.53125 115.941406 287.445312 116.03125 286.355469 116.171875 C 286.757812 115.507812 287.179688 114.839844 287.640625 114.207031 Z M 262.640625 121.058594 C 264.496094 115.457031 266.859375 110.078125 269.730469 104.921875 C 272.183594 100.589844 275.15625 96.648438 278.652344 93.105469 C 281.289062 90.554688 284.160156 88.304688 287.265625 86.351562 C 287.070312 87.082031 286.898438 87.808594 286.695312 88.46875 C 285.917969 90.984375 285.089844 93.484375 284.128906 95.960938 C 282.105469 101.148438 279.605469 106.09375 276.636719 110.800781 C 273.75 115.394531 270.457031 119.679688 266.757812 123.648438 C 264.574219 125.984375 262.097656 128.035156 259.691406 130.144531 C 260.746094 127.117188 261.597656 124.046875 262.636719 121.058594 Z M 293.191406 162.550781 C 291.871094 163.011719 290.511719 163.324219 289.121094 163.488281 C 286.265625 163.707031 283.410156 163.726562 280.554688 163.554688 C 277.71875 163.472656 274.933594 163.042969 272.203125 162.269531 C 269.472656 161.496094 266.878906 160.398438 264.417969 158.980469 C 260.714844 156.839844 257.28125 154.210938 253.578125 152.023438 C 256.441406 152.558594 259.289062 153.09375 262.144531 153.71875 C 272.742188 155.996094 283.175781 158.402344 293.1875 162.550781 Z M 329.832031 131.214844 C 324.664062 132.828125 319.394531 133.957031 314.019531 134.601562 C 308.964844 135.1875 303.894531 135.367188 298.8125 135.136719 C 296.363281 135.035156 293.914062 134.816406 291.46875 134.601562 C 290.105469 134.472656 288.515625 134.066406 287.035156 134.066406 C 289.902344 131.980469 292.554688 129.855469 296.035156 128.519531 C 300.496094 126.878906 305.101562 126.054688 309.851562 126.046875 C 318.417969 125.933594 326.773438 128.433594 335.226562 129.324219 C 333.445312 130.011719 331.644531 130.644531 329.824219 131.214844 Z M 329.832031 131.214844 " fill-opacity="1" fill-rule="nonzero"/><path fill="#330f0f" d="M 242.492188 93.546875 C 242.492188 93.457031 242.453125 93.367188 242.433594 93.273438 C 242.164062 92.203125 240.734375 92.578125 240.648438 93.542969 C 239.894531 102.007812 240.222656 110.332031 238.40625 118.703125 C 236.859375 125.867188 234.980469 132.984375 228.835938 137.519531 C 228.730469 137.585938 228.695312 137.675781 228.730469 137.796875 C 228.761719 137.914062 228.839844 137.972656 228.964844 137.976562 C 230.523438 137.992188 231.941406 137.558594 233.21875 136.667969 C 233.523438 136.800781 233.820312 136.785156 234.109375 136.632812 C 238.070312 134.261719 241.226562 130.128906 243.957031 126.460938 C 246.902344 122.515625 249.3125 118.042969 250.351562 113.1875 C 251.976562 105.523438 249.730469 97.050781 242.492188 93.546875 Z M 246.59375 115.0625 C 245.207031 119.234375 242.796875 122.992188 240.023438 126.375 C 239.707031 126.753906 239.382812 127.128906 239.050781 127.5 C 239.746094 125.484375 240.265625 123.511719 240.65625 121.914062 C 242.796875 113.664062 244.402344 104.125 242.886719 95.566406 C 243.632812 96.398438 244.328125 97.265625 244.980469 98.171875 C 245.90625 99.664062 246.605469 101.253906 247.078125 102.941406 C 247.609375 104.941406 247.832031 106.972656 247.75 109.039062 C 247.664062 111.105469 247.28125 113.113281 246.59375 115.0625 Z M 246.59375 115.0625 " fill-opacity="1" fill-rule="nonzero"/><path fill="#330f0f" d="M 291.664062 143.863281 C 290.425781 143.699219 288.585938 144.550781 288.769531 145.910156 C 288.078125 146.195312 287.628906 146.699219 287.421875 147.417969 C 287.34375 147.761719 287.324219 148.105469 287.359375 148.457031 C 287.394531 148.804688 287.484375 149.136719 287.628906 149.457031 C 287.773438 149.777344 287.964844 150.066406 288.207031 150.320312 C 288.445312 150.578125 288.71875 150.789062 289.027344 150.957031 C 289.34375 151.121094 289.679688 151.234375 290.027344 151.300781 C 290.378906 151.363281 290.730469 151.375 291.085938 151.332031 C 291.4375 151.289062 291.777344 151.195312 292.105469 151.050781 C 292.429688 150.90625 292.726562 150.714844 292.996094 150.480469 C 295.214844 148.648438 294.949219 144.308594 291.664062 143.863281 Z M 290.320312 148.242188 C 289.78125 147.9375 290.007812 147.386719 290.429688 147.171875 L 290.566406 147.171875 L 290.777344 147.117188 C 291 147.132812 291.179688 147.226562 291.3125 147.402344 C 291.34375 147.433594 291.375 147.457031 291.414062 147.472656 C 291.324219 147.976562 290.746094 148.476562 290.320312 148.242188 Z M 290.320312 148.242188 " fill-opacity="1" fill-rule="nonzero"/><path fill="#330f0f" d="M 337.734375 113.542969 C 337.398438 113.175781 336.992188 112.933594 336.511719 112.804688 C 336.035156 112.679688 335.558594 112.695312 335.089844 112.847656 C 334.820312 112.953125 334.574219 113.09375 334.34375 113.269531 C 333.722656 113.539062 333.296875 113.996094 333.066406 114.632812 C 332.992188 114.863281 332.949219 115.097656 332.9375 115.335938 C 332.925781 115.578125 332.941406 115.8125 332.992188 116.050781 C 333.042969 116.285156 333.121094 116.507812 333.226562 116.722656 C 333.335938 116.9375 333.46875 117.136719 333.628906 117.316406 C 333.785156 117.496094 333.964844 117.652344 334.164062 117.785156 C 334.363281 117.917969 334.578125 118.023438 334.804688 118.101562 C 335.03125 118.179688 335.265625 118.226562 335.503906 118.246094 C 335.746094 118.261719 335.980469 118.25 336.21875 118.207031 C 338.230469 117.753906 339.214844 115.074219 337.734375 113.542969 Z M 337.734375 113.542969 " fill-opacity="1" fill-rule="nonzero"/><path fill="#330f0f" d="M 220.132812 126.996094 C 220 126.757812 219.832031 126.550781 219.621094 126.375 C 219.414062 126.199219 219.183594 126.066406 218.925781 125.972656 C 218.667969 125.882812 218.40625 125.84375 218.132812 125.851562 C 217.859375 125.859375 217.597656 125.917969 217.347656 126.019531 C 217.050781 126.164062 216.808594 126.371094 216.621094 126.644531 C 216.4375 126.917969 216.335938 127.21875 216.3125 127.546875 C 215.777344 127.742188 215.421875 128.113281 215.242188 128.65625 C 215.121094 129.078125 215.121094 129.503906 215.238281 129.925781 C 215.359375 130.351562 215.582031 130.714844 215.90625 131.011719 C 216.242188 131.328125 216.632812 131.539062 217.082031 131.644531 C 217.53125 131.753906 217.976562 131.742188 218.417969 131.617188 C 218.878906 131.457031 219.28125 131.203125 219.621094 130.855469 C 219.964844 130.507812 220.207031 130.101562 220.355469 129.632812 C 220.515625 129.199219 220.574219 128.75 220.535156 128.289062 C 220.496094 127.828125 220.363281 127.398438 220.132812 126.996094 Z M 220.132812 126.996094 " fill-opacity="1" fill-rule="nonzero"/><path fill="#330f0f" d="M 308.964844 78.816406 C 306.945312 77.476562 303.738281 78.816406 303.695312 81.34375 C 303.6875 81.601562 303.746094 81.847656 303.875 82.074219 C 303.847656 82.773438 304.042969 83.402344 304.453125 83.964844 C 304.609375 84.15625 304.785156 84.324219 304.980469 84.476562 C 305.175781 84.628906 305.382812 84.757812 305.601562 84.867188 C 305.824219 84.976562 306.054688 85.058594 306.292969 85.121094 C 306.535156 85.179688 306.777344 85.214844 307.023438 85.222656 C 307.269531 85.230469 307.515625 85.214844 307.757812 85.171875 C 308 85.128906 308.234375 85.058594 308.464844 84.96875 C 308.691406 84.875 308.910156 84.757812 309.113281 84.621094 C 309.316406 84.484375 309.503906 84.324219 309.675781 84.148438 C 309.839844 83.953125 309.984375 83.746094 310.105469 83.523438 C 310.226562 83.300781 310.324219 83.066406 310.394531 82.824219 C 310.46875 82.582031 310.515625 82.332031 310.535156 82.078125 C 310.554688 81.828125 310.546875 81.574219 310.511719 81.320312 C 310.480469 81.070312 310.417969 80.824219 310.335938 80.585938 C 310.25 80.347656 310.140625 80.121094 310.003906 79.902344 C 309.871094 79.6875 309.71875 79.488281 309.542969 79.304688 C 309.367188 79.121094 309.175781 78.957031 308.964844 78.816406 Z M 307.390625 82.132812 C 307.390625 82.066406 307.214844 82.21875 307.320312 82.195312 C 306.96875 82.273438 306.890625 82.355469 306.640625 82.195312 C 306.582031 82.125 306.542969 82.046875 306.519531 81.957031 C 306.605469 81.859375 306.683594 81.757812 306.753906 81.648438 C 306.824219 81.589844 306.902344 81.511719 306.832031 81.539062 C 307.117188 81.429688 307.070312 81.445312 307.234375 81.453125 C 307.117188 81.453125 307.289062 81.535156 307.289062 81.507812 C 307.429688 81.660156 307.484375 81.839844 307.460938 82.042969 C 307.449219 81.945312 307.449219 82.058594 307.390625 82.152344 Z M 307.390625 82.132812 " fill-opacity="1" fill-rule="nonzero"/><g clip-path="url(#e39ef97cf6)"><path fill="#330f0f" d="M 35.394531 127.925781 C 35.730469 128.21875 36.085938 128.488281 36.464844 128.730469 C 36.507812 128.957031 36.617188 129.148438 36.789062 129.304688 C 36.960938 129.457031 37.164062 129.546875 37.394531 129.566406 L 37.929688 129.566406 C 39.324219 130.273438 40.828125 130.832031 42.214844 131.410156 C 44.765625 132.484375 47.375 133.429688 50.011719 134.253906 C 55.011719 135.800781 60.105469 136.910156 65.296875 137.585938 C 70.808594 138.320312 76.34375 138.507812 81.890625 138.144531 C 84.480469 137.988281 87.050781 137.679688 89.601562 137.226562 C 91.453125 136.878906 94.054688 136.691406 95.488281 135.355469 L 95.613281 135.40625 C 95.675781 135.445312 95.734375 135.484375 95.792969 135.527344 C 95.882812 135.585938 95.972656 135.597656 96.074219 135.570312 C 101.867188 137.589844 108.546875 138.007812 114.554688 139.035156 C 117.816406 139.570312 121.082031 140.148438 124.359375 140.640625 C 126.855469 141.019531 129.433594 141.566406 131.984375 141.648438 C 136.472656 143.609375 141.050781 145.324219 145.71875 146.796875 L 144.214844 146.886719 C 141.28125 147.054688 138.355469 147.363281 135.441406 147.722656 C 129.527344 148.453125 123.621094 149.386719 117.777344 150.65625 C 105.855469 153.253906 94.253906 157.617188 82.679688 161.421875 C 81.371094 161.855469 81.132812 163.921875 82.640625 164.285156 C 84.152344 164.652344 85.316406 164.382812 86.804688 164.386719 C 88.5 164.484375 90.171875 164.722656 91.824219 165.101562 C 94.40625 165.632812 97.015625 165.988281 99.648438 166.171875 C 104.890625 166.472656 109.902344 165.550781 114.691406 163.398438 C 119.179688 161.308594 123.125 158.273438 127.320312 155.683594 C 129.378906 154.347656 131.546875 153.234375 133.835938 152.34375 C 135.976562 151.574219 138.273438 151.429688 140.429688 150.738281 C 140.828125 150.613281 141.085938 150.351562 141.203125 149.949219 L 145.011719 149.464844 C 147.046875 149.195312 149.121094 149.046875 151.078125 148.453125 C 157 150.101562 163.476562 151.851562 169.589844 151.605469 C 169.761719 151.597656 169.910156 151.539062 170.039062 151.425781 C 170.164062 151.3125 170.242188 151.171875 170.265625 151 C 170.292969 150.832031 170.257812 150.675781 170.171875 150.53125 C 170.082031 150.382812 169.957031 150.285156 169.792969 150.230469 C 163.558594 148.179688 156.898438 147.398438 150.585938 145.519531 C 144.210938 143.636719 138 141.320312 131.949219 138.558594 C 130.019531 137.671875 128.128906 136.742188 126.269531 135.757812 C 126.289062 135.480469 126.207031 135.230469 126.03125 135.015625 C 125.402344 134.308594 124.746094 133.632812 124.070312 132.976562 C 123.472656 128.050781 121.84375 123.207031 120.257812 118.554688 C 118.40625 112.921875 116.003906 107.535156 113.054688 102.390625 C 108.011719 93.828125 100.34375 84.878906 90.445312 82.082031 C 90.195312 82.023438 89.957031 82.054688 89.726562 82.171875 C 89.5 82.285156 89.332031 82.460938 89.230469 82.699219 C 89.128906 82.933594 89.113281 83.171875 89.183594 83.421875 C 89.253906 83.667969 89.394531 83.863281 89.605469 84.007812 L 90.675781 84.65625 C 90.539062 86.421875 91.25 88.476562 91.636719 90.007812 C 92.355469 92.824219 93.25 95.585938 94.3125 98.289062 C 96.324219 103.464844 98.8125 108.398438 101.78125 113.09375 C 104.832031 117.894531 108.316406 122.355469 112.238281 126.476562 C 112.914062 127.1875 113.605469 127.910156 114.3125 128.617188 C 109.070312 125.179688 103.992188 121.472656 98.914062 117.632812 C 98.808594 117.546875 98.6875 117.484375 98.558594 117.445312 C 98.429688 117.355469 98.296875 117.273438 98.160156 117.199219 C 97.308594 115.160156 95.886719 113.253906 94.644531 111.535156 C 93.03125 109.3125 91.265625 107.214844 89.347656 105.25 C 85.382812 101.191406 80.941406 97.75 76.023438 94.917969 C 66.160156 89.238281 54.222656 85.855469 42.835938 87.160156 C 41.167969 87.347656 41.019531 89.839844 42.796875 89.839844 L 43.867188 89.839844 C 45.929688 94.507812 50.164062 98.097656 54.039062 101.304688 C 58.191406 104.746094 62.640625 107.753906 67.378906 110.332031 C 72.25 112.972656 77.328125 115.125 82.613281 116.785156 C 85.320312 117.636719 88.066406 118.339844 90.847656 118.902344 C 92.679688 119.269531 95.09375 120.042969 97.101562 119.820312 L 97.417969 120.148438 C 97.585938 120.324219 97.792969 120.402344 98.039062 120.390625 C 106.433594 128.257812 116.679688 134.496094 127.113281 139.453125 C 126.195312 139.25 125.28125 139.054688 124.375 138.847656 C 121.164062 138.109375 117.953125 137.414062 114.738281 136.707031 C 108.5 135.367188 101.890625 133.140625 95.46875 133.078125 L 95.421875 133.078125 C 93.5 130.050781 90.011719 127.847656 86.917969 126.394531 C 82.589844 124.445312 78.054688 123.339844 73.316406 123.078125 C 67.480469 122.671875 61.628906 123.414062 55.878906 124.335938 C 50.699219 125.171875 45.488281 125.972656 40.355469 126.972656 C 39.230469 126.398438 38.058594 125.953125 36.832031 125.640625 C 35.527344 125.390625 34.289062 126.964844 35.394531 127.925781 Z M 94.386719 116.148438 C 93.316406 116.011719 92.214844 115.917969 91.28125 115.726562 C 88.640625 115.179688 86.035156 114.507812 83.464844 113.707031 C 78.4375 112.140625 73.605469 110.101562 68.96875 107.601562 C 64.207031 105.03125 59.730469 102.039062 55.53125 98.621094 C 52.144531 95.851562 49.199219 92.433594 45.65625 89.875 C 55.777344 90.222656 65.480469 92.507812 74.417969 97.550781 C 79.25 100.28125 83.605469 103.621094 87.492188 107.578125 C 89.519531 109.644531 91.382812 111.847656 93.082031 114.191406 C 93.535156 114.839844 93.957031 115.507812 94.386719 116.171875 Z M 121.023438 130.066406 C 118.617188 127.960938 116.144531 125.910156 113.957031 123.574219 C 110.261719 119.605469 106.96875 115.320312 104.082031 110.726562 C 101.109375 106.019531 98.609375 101.074219 96.585938 95.886719 C 95.628906 93.429688 94.800781 90.929688 94.015625 88.394531 C 93.8125 87.734375 93.648438 87.007812 93.449219 86.277344 C 96.554688 88.226562 99.425781 90.476562 102.058594 93.027344 C 105.558594 96.597656 108.535156 100.5625 110.980469 104.921875 C 113.855469 110.078125 116.214844 115.457031 118.070312 121.058594 C 119.113281 124.046875 119.964844 127.117188 121.023438 130.109375 Z M 118.589844 153.761719 C 121.4375 153.15625 124.285156 152.585938 127.15625 152.066406 C 123.449219 154.207031 120.019531 156.839844 116.308594 159.023438 C 113.851562 160.441406 111.257812 161.539062 108.527344 162.3125 C 105.796875 163.085938 103.015625 163.515625 100.179688 163.597656 C 97.324219 163.769531 94.46875 163.75 91.613281 163.53125 C 90.222656 163.367188 88.867188 163.054688 87.546875 162.59375 C 97.539062 158.402344 107.972656 155.996094 118.589844 153.761719 Z M 45.496094 129.328125 C 53.941406 128.441406 62.320312 125.941406 70.863281 126.054688 C 75.617188 126.058594 80.226562 126.882812 84.6875 128.527344 C 88.167969 129.859375 90.820312 131.984375 93.6875 134.074219 C 92.207031 134.046875 90.617188 134.464844 89.253906 134.609375 C 86.804688 134.839844 84.359375 135.058594 81.910156 135.144531 C 76.824219 135.371094 71.753906 135.195312 66.699219 134.609375 C 61.324219 133.964844 56.054688 132.832031 50.890625 131.21875 C 49.070312 130.648438 47.273438 130.019531 45.496094 129.328125 Z M 45.496094 129.328125 " fill-opacity="1" fill-rule="nonzero"/></g><path fill="#330f0f" d="M 130.34375 113.171875 C 131.367188 118.027344 133.792969 122.5 136.738281 126.445312 C 139.46875 130.101562 142.625 134.234375 146.585938 136.617188 C 146.878906 136.792969 147.179688 136.816406 147.496094 136.691406 C 148.777344 137.578125 150.195312 138.015625 151.753906 137.996094 C 151.875 137.996094 151.953125 137.9375 151.988281 137.816406 C 152.019531 137.699219 151.984375 137.605469 151.882812 137.542969 C 145.734375 133.007812 143.851562 125.886719 142.308594 118.722656 C 140.496094 110.339844 140.816406 102.015625 140.066406 93.5625 C 139.980469 92.601562 138.550781 92.234375 138.285156 93.296875 C 138.285156 93.386719 138.246094 93.476562 138.226562 93.570312 C 130.988281 97.050781 128.738281 105.523438 130.34375 113.171875 Z M 133.605469 102.941406 C 134.082031 101.253906 134.785156 99.664062 135.710938 98.171875 C 136.359375 97.265625 137.058594 96.398438 137.800781 95.566406 C 136.265625 104.132812 137.867188 113.664062 140.035156 121.914062 C 140.453125 123.519531 140.972656 125.484375 141.640625 127.5 C 141.308594 127.128906 140.980469 126.753906 140.667969 126.375 C 137.894531 122.992188 135.484375 119.234375 134.097656 115.0625 C 133.410156 113.113281 133.023438 111.105469 132.941406 109.039062 C 132.855469 106.972656 133.078125 104.941406 133.605469 102.941406 Z M 133.605469 102.941406 " fill-opacity="1" fill-rule="nonzero"/><path fill="#330f0f" d="M 87.738281 150.480469 C 88.003906 150.714844 88.300781 150.90625 88.628906 151.050781 C 88.953125 151.195312 89.292969 151.289062 89.644531 151.332031 C 90 151.375 90.351562 151.363281 90.699219 151.300781 C 91.050781 151.234375 91.382812 151.121094 91.699219 150.957031 C 92.007812 150.789062 92.28125 150.578125 92.523438 150.320312 C 92.761719 150.066406 92.953125 149.777344 93.097656 149.457031 C 93.242188 149.136719 93.332031 148.804688 93.367188 148.457031 C 93.40625 148.105469 93.382812 147.761719 93.304688 147.417969 C 93.097656 146.699219 92.648438 146.195312 91.957031 145.910156 C 92.144531 144.550781 90.300781 143.699219 89.066406 143.863281 C 85.769531 144.308594 85.496094 148.648438 87.738281 150.480469 Z M 89.34375 147.484375 C 89.382812 147.464844 89.417969 147.441406 89.445312 147.414062 C 89.582031 147.238281 89.757812 147.144531 89.980469 147.128906 L 90.191406 147.183594 L 90.328125 147.183594 C 90.75 147.375 90.992188 147.925781 90.4375 148.253906 C 89.96875 148.476562 89.390625 147.976562 89.316406 147.484375 Z M 89.34375 147.484375 " fill-opacity="1" fill-rule="nonzero"/><path fill="#330f0f" d="M 44.5 118.207031 C 44.734375 118.25 44.972656 118.261719 45.210938 118.246094 C 45.453125 118.226562 45.683594 118.179688 45.910156 118.101562 C 46.140625 118.023438 46.351562 117.917969 46.550781 117.785156 C 46.75 117.652344 46.929688 117.496094 47.089844 117.316406 C 47.25 117.136719 47.382812 116.9375 47.488281 116.722656 C 47.597656 116.507812 47.675781 116.285156 47.726562 116.050781 C 47.773438 115.8125 47.792969 115.578125 47.78125 115.335938 C 47.769531 115.097656 47.726562 114.863281 47.652344 114.632812 C 47.421875 113.996094 46.992188 113.539062 46.367188 113.269531 C 46.140625 113.09375 45.894531 112.953125 45.628906 112.847656 C 45.15625 112.695312 44.683594 112.679688 44.203125 112.804688 C 43.726562 112.933594 43.320312 113.175781 42.984375 113.542969 C 41.496094 115.074219 42.488281 117.753906 44.5 118.207031 Z M 44.5 118.207031 " fill-opacity="1" fill-rule="nonzero"/><path fill="#330f0f" d="M 160.585938 126.996094 C 160.71875 126.757812 160.886719 126.550781 161.09375 126.375 C 161.300781 126.199219 161.535156 126.066406 161.792969 125.972656 C 162.046875 125.882812 162.3125 125.84375 162.585938 125.851562 C 162.855469 125.859375 163.117188 125.917969 163.371094 126.019531 C 163.667969 126.164062 163.910156 126.371094 164.09375 126.644531 C 164.28125 126.917969 164.382812 127.21875 164.402344 127.546875 C 164.9375 127.742188 165.296875 128.113281 165.472656 128.65625 C 165.597656 129.078125 165.597656 129.503906 165.476562 129.925781 C 165.359375 130.351562 165.136719 130.714844 164.808594 131.011719 C 164.472656 131.328125 164.082031 131.539062 163.636719 131.644531 C 163.1875 131.753906 162.742188 131.742188 162.300781 131.617188 C 161.835938 131.457031 161.4375 131.203125 161.09375 130.855469 C 160.753906 130.507812 160.507812 130.101562 160.359375 129.632812 C 160.203125 129.199219 160.140625 128.75 160.179688 128.289062 C 160.21875 127.828125 160.355469 127.398438 160.585938 126.996094 Z M 160.585938 126.996094 " fill-opacity="1" fill-rule="nonzero"/><path fill="#330f0f" d="M 71.035156 84.167969 C 71.207031 84.347656 71.394531 84.503906 71.597656 84.644531 C 71.804688 84.78125 72.019531 84.898438 72.25 84.988281 C 72.476562 85.082031 72.714844 85.148438 72.957031 85.191406 C 73.199219 85.234375 73.445312 85.253906 73.691406 85.242188 C 73.9375 85.234375 74.179688 85.203125 74.421875 85.140625 C 74.660156 85.082031 74.890625 84.996094 75.113281 84.890625 C 75.335938 84.78125 75.542969 84.652344 75.738281 84.5 C 75.929688 84.347656 76.105469 84.175781 76.265625 83.988281 C 76.675781 83.421875 76.867188 82.792969 76.84375 82.097656 C 76.972656 81.871094 77.03125 81.625 77.019531 81.363281 C 76.976562 78.835938 73.769531 77.5 71.746094 78.835938 C 71.539062 78.980469 71.347656 79.144531 71.171875 79.328125 C 70.996094 79.511719 70.84375 79.710938 70.710938 79.925781 C 70.578125 80.144531 70.46875 80.371094 70.382812 80.609375 C 70.296875 80.847656 70.238281 81.09375 70.203125 81.34375 C 70.171875 81.597656 70.164062 81.847656 70.183594 82.101562 C 70.203125 82.355469 70.25 82.601562 70.320312 82.84375 C 70.390625 83.089844 70.488281 83.320312 70.609375 83.542969 C 70.730469 83.769531 70.871094 83.976562 71.035156 84.167969 Z M 73.257812 82.027344 C 73.234375 81.824219 73.289062 81.644531 73.421875 81.492188 C 73.421875 81.519531 73.601562 81.433594 73.480469 81.4375 C 73.648438 81.4375 73.601562 81.410156 73.882812 81.523438 C 73.8125 81.496094 73.882812 81.574219 73.964844 81.632812 C 74.03125 81.742188 74.109375 81.847656 74.199219 81.941406 C 74.175781 82.03125 74.132812 82.109375 74.078125 82.175781 C 73.824219 82.355469 73.746094 82.273438 73.390625 82.175781 C 73.5 82.175781 73.3125 82.050781 73.328125 82.117188 C 73.285156 82.058594 73.257812 81.945312 73.257812 82.027344 Z M 73.257812 82.027344 " fill-opacity="1" fill-rule="nonzero"/><path stroke-linecap="butt" transform="matrix(1.035934, 0.306729, -0.306729, 1.035934, 28.298257, 235.270941)" fill="none" stroke-linejoin="miter" d="M 28.944286 27.295942 C 23.70898 25.58436 17.634975 26.745552 12.720767 29.16214 C 12.166463 29.314951 11.693543 29.56433 11.692458 29.866311 C 8.740047 46.091225 5.998956 62.393087 2.721981 78.540646 C 2.570661 78.921048 3.351935 78.923507 3.581132 78.844332 C 18.568507 76.82755 35.572291 64.734058 38.295757 49.289605 C 39.781685 41.025324 37.989705 30.172007 28.944286 27.295942 Z M 35.323665 48.81591 C 33.612394 62.54663 20.662563 72.998612 8.0365 76.90297 C 5.465785 77.682986 5.922379 78.218987 6.169065 75.970221 C 6.398863 74.084678 6.950939 72.141418 7.254431 70.275533 C 8.340552 64.659806 9.369538 59.042143 10.379137 53.422679 C 11.865279 45.388351 13.331762 37.427718 14.73867 29.469641 C 19.425365 27.048773 25.671821 27.144971 29.954681 30.32635 C 35.323566 34.475765 36.200382 42.492952 35.323665 48.81591 Z M 35.323665 48.81591 " stroke="#330f0f" stroke-width="5.850412" stroke-opacity="1" stroke-miterlimit="4"/><path stroke-linecap="butt" transform="matrix(1.059788, 0.209978, -0.209978, 1.059788, 76.901747, 249.143801)" fill="none" stroke-linejoin="miter" d="M 29.17236 29.866842 C 24.184409 29.638776 19.118644 30.096957 14.03327 30.41896 C 13.329727 30.495695 12.472479 30.875638 12.321459 31.65748 C 9.749587 42.340077 7.178253 53.118401 5.141595 63.87925 C 4.533703 67.154805 2.34194 73.077338 3.827382 76.277238 C 5.54046 80.253987 12.796443 79.074354 16.070638 78.466175 C 18.014938 78.066203 17.482368 76.122373 15.519094 76.426586 C 13.50105 76.826426 10.378022 77.360423 8.416835 76.50317 C 6.171578 75.495792 6.704614 73.62833 6.949363 71.589462 C 7.559898 66.448328 8.741814 61.381965 9.82449 56.298405 C 9.827162 55.995634 9.902874 55.689448 9.979189 55.442117 C 13.425879 55.518508 16.927842 55.613434 20.356096 55.689792 C 21.365824 55.688769 23.707162 54.130169 21.613259 54.128534 C 17.863931 53.975728 14.11166 53.88248 10.377088 53.804153 C 11.863278 46.720302 13.499965 39.540286 15.214513 32.43699 C 19.500014 32.133404 23.785549 31.811382 27.991494 31.980608 C 29.47758 32.05844 31.266701 30.019511 29.17236 29.866842 Z M 29.17236 29.866842 " stroke="#330f0f" stroke-width="5.850412" stroke-opacity="1" stroke-miterlimit="4"/><path stroke-linecap="butt" transform="matrix(1.072558, 0.129847, -0.129847, 1.072558, 116.983576, 256.691438)" fill="none" stroke-linejoin="miter" d="M 23.402172 74.409889 C 18.337141 74.087083 13.25342 75.114078 8.589951 77.055324 C 10.300588 58.966039 12.320971 41.028639 14.187464 22.993326 C 14.28212 22.060442 11.160621 22.689637 11.083608 23.467421 C 9.121018 41.882209 7.0253 60.280337 5.390535 78.6955 C 5.217555 79.703422 7.406396 78.921272 7.807008 78.770797 C 12.016494 76.749757 16.69943 75.570973 21.367039 75.799854 C 22.146466 75.800186 25.042808 74.484419 23.402172 74.409889 Z M 23.402172 74.409889 " stroke="#330f0f" stroke-width="5.850412" stroke-opacity="1" stroke-miterlimit="4"/><path stroke-linecap="butt" transform="matrix(1.078646, 0.061343, -0.061343, 1.078646, 150.216763, 260.422394)" fill="none" stroke-linejoin="miter" d="M 11.309889 22.385039 C 9.368336 40.780091 7.253925 59.192216 5.541635 77.606823 C 5.464443 78.541922 8.66632 77.914393 8.741305 77.13152 C 10.376883 58.641604 12.474768 40.320955 14.433343 21.906828 C 14.510741 20.975338 11.388484 21.60196 11.309889 22.385039 Z M 11.309889 22.385039 " stroke="#330f0f" stroke-width="5.850412" stroke-opacity="1" stroke-miterlimit="4"/><path stroke-linecap="butt" transform="matrix(1.080233, -0.0183535, 0.0183535, 1.080233, 178.64718, 262.087833)" fill="none" stroke-linejoin="miter" d="M 36.351711 23.545667 C 34.715048 17.927344 26.128337 17.622344 21.615497 19.107832 C 15.36636 21.051995 11.768467 26.364416 11.312951 32.742738 C 10.682629 41.960359 15.444637 50.072662 18.241563 58.487877 C 19.881938 63.249244 21.442904 70.98171 16.52822 74.409458 C 11.940561 77.531775 6.625719 74.714922 4.608692 70.200284 C 3.902156 68.792459 0.934005 70.029366 1.560949 71.439456 C 6.075587 81.34115 21.063268 79.704566 22.775979 68.715358 C 24.261248 59.194044 17.784423 50.701843 15.594601 41.884706 C 14.435154 37.124277 13.503202 31.105689 15.920835 26.51452 C 18.641722 21.527114 31.114523 17.222501 33.307275 24.802976 C 33.781096 26.286402 36.80972 25.108379 36.351711 23.545667 Z M 36.351711 23.545667 " stroke="#330f0f" stroke-width="5.850412" stroke-opacity="1" stroke-miterlimit="4"/><path stroke-linecap="butt" transform="matrix(1.074274, -0.11479, 0.11479, 1.074274, 221.747304, 261.138938)" fill="none" stroke-linejoin="miter" d="M 31.364192 33.522308 C 30.259792 27.830039 26.051628 27.602189 21.841194 31.104813 C 14.967605 36.799106 11.311226 46.720607 8.113674 54.662148 C 5.2178 61.992321 2.647988 69.57187 0.552842 77.133051 C 0.0744454 78.921838 3.200721 78.997723 3.581781 77.609424 C 5.38818 70.980976 7.559775 64.507908 9.977158 58.184734 C 15.74881 58.106946 21.443813 58.031876 27.13714 57.938446 C 26.355512 64.334594 25.347036 70.811951 24.107043 77.210027 C 23.783317 78.844441 27.060197 78.463716 27.305903 76.980957 C 28.46876 71.13461 29.402022 65.191006 30.183658 59.271199 C 31.26958 51.082205 32.925901 41.808765 31.364192 33.522308 Z M 10.757487 56.224583 C 12.795889 50.92995 15.064517 45.692642 17.861964 40.780917 C 18.794252 39.066084 23.936116 29.943279 26.907324 31.027997 C 29.172459 31.982726 28.622914 39.541795 28.545961 41.180761 C 28.467527 46.168487 27.99349 51.081216 27.384021 56.070378 C 21.84155 56.147202 16.29908 56.224026 10.683939 56.300356 C 10.684816 56.22409 10.757487 56.224583 10.757487 56.224583 Z M 10.757487 56.224583 " stroke="#330f0f" stroke-width="5.850412" stroke-opacity="1" stroke-miterlimit="4"/><path stroke-linecap="butt" transform="matrix(1.058861, -0.214601, 0.214601, 1.058861, 265.903377, 256.234553)" fill="none" stroke-linejoin="miter" d="M 33.456852 31.811151 C 32.829715 38.837221 32.220107 45.940625 31.51573 52.947352 C 31.040087 57.860756 30.58288 62.774208 30.030857 67.609417 C 29.955694 68.162305 29.953366 68.792671 29.955301 69.42021 C 28.946033 66.755028 27.76422 63.630629 27.460366 62.945588 C 25.270312 57.860834 23.002924 52.793608 20.834085 47.731599 C 18.090392 41.483243 15.4452 35.25854 12.719943 29.010232 C 12.319781 27.999476 9.67264 28.610287 9.596964 29.638967 C 7.885431 45.310178 6.16873 61.061502 4.530894 76.751338 C 4.361081 77.989663 7.484061 77.360928 7.636977 76.351592 C 9.120682 62.696416 10.528971 49.140318 12.015313 35.563147 C 14.283419 40.626829 16.45154 45.692382 18.644948 50.851598 C 20.907885 55.995393 23.174129 61.232085 25.422892 66.373008 C 26.127958 67.936209 27.993159 74.714828 29.800804 75.18817 C 30.584457 75.417087 31.971926 74.942021 32.295848 74.162866 C 33.154569 72.219358 32.99962 69.32521 33.229072 67.228344 C 33.685561 62.318436 34.164558 57.479493 34.640201 52.566089 C 35.323553 45.462874 35.954234 38.437522 36.655975 31.35279 C 36.732748 30.17308 33.610676 30.724528 33.456852 31.811151 Z M 33.456852 31.811151 " stroke="#330f0f" stroke-width="5.850412" stroke-opacity="1" stroke-miterlimit="4"/><path stroke-linecap="butt" transform="matrix(1.034196, -0.312537, 0.312537, 1.034196, 312.183793, 246.528529)" fill="none" stroke-linejoin="miter" d="M 31.363358 33.525653 C 30.259738 27.828672 26.048697 27.602338 21.843629 31.105795 C 14.966843 36.80086 11.311574 46.721548 8.111551 54.660865 C 5.219236 61.994412 2.646076 69.571714 0.553977 77.13198 C 0.0773007 78.921796 3.199836 79.000481 3.579089 77.608034 C 5.388788 70.98224 7.560771 64.507477 9.977287 58.185932 C 15.749075 58.109624 21.441906 58.032117 27.136505 57.93626 C 26.354423 64.336255 25.345701 70.811289 24.107184 77.209324 C 23.786311 78.846039 27.059383 78.464086 27.307916 76.979257 C 28.470517 71.132397 29.400584 65.192602 30.182398 59.268439 C 31.269723 51.083475 32.92443 41.808429 31.363358 33.525653 Z M 10.759065 56.223922 C 12.797414 50.928774 15.063866 45.691228 17.862285 40.780636 C 18.79629 39.064815 23.935968 29.943988 26.908591 31.031177 C 29.175017 31.980492 28.620196 39.540745 28.544161 41.179686 C 28.467941 46.168847 27.991537 51.082397 27.383386 56.069445 C 21.841546 56.147256 16.300752 56.221606 10.683417 56.299265 C 10.68357 56.22377 10.759065 56.223922 10.759065 56.223922 Z M 10.759065 56.223922 " stroke="#330f0f" stroke-width="5.850412" stroke-opacity="1" stroke-miterlimit="4"/><g fill="#330f0f" fill-opacity="1"><g transform="translate(5.90703, 310.894097)"><g><path d="M 43.996094 -38.472656 C 39.109375 -41.855469 32.449219 -42.507812 26.617188 -41.511719 C 26.003906 -41.515625 25.445312 -41.417969 25.351562 -41.09375 C 17.304688 -25.199219 9.476562 -9.148438 1.128906 6.574219 C 0.847656 6.929688 1.65625 7.167969 1.921875 7.160156 C 18.058594 9.652344 39.382812 2.34375 46.949219 -12.816406 C 51.019531 -20.925781 52.484375 -32.710938 43.996094 -38.472656 Z M 44.019531 -14.210938 C 38.03125 -0.515625 21.414062 6.339844 7.125 6.503906 C 4.222656 6.523438 4.539062 7.230469 5.472656 4.960938 C 6.289062 3.09375 7.453125 1.242188 8.351562 -0.601562 C 11.207031 -6.085938 13.980469 -11.59375 16.75 -17.097656 C 20.75 -24.96875 24.726562 -32.753906 28.621094 -40.566406 C 34.210938 -41.636719 40.652344 -39.640625 44.113281 -35.011719 C 48.421875 -29.078125 46.847656 -20.492188 44.019531 -14.210938 Z M 44.019531 -14.210938 "/></g></g></g><g fill="#330f0f" fill-opacity="1"><g transform="translate(61.573342, 326.508313)"><g><path d="M 39.972656 -39.585938 C 34.730469 -40.882812 29.261719 -41.453125 23.820312 -42.1875 C 23.0625 -42.25 22.070312 -42.019531 21.742188 -41.222656 C 16.769531 -30.4375 11.78125 -19.574219 7.371094 -8.589844 C 6.023438 -5.25 2.464844 0.574219 3.363281 4.273438 C 4.347656 8.851562 12.28125 9.132812 15.882812 9.160156 C 18.03125 9.15625 17.863281 6.976562 15.730469 6.894531 C 13.5 6.882812 10.078125 6.808594 8.191406 5.488281 C 6.007812 3.9375 6.976562 2.070312 7.652344 -0.03125 C 9.394531 -5.355469 11.699219 -10.484375 13.921875 -15.625 C 13.984375 -15.957031 14.132812 -16.269531 14.265625 -16.503906 C 17.886719 -15.699219 21.589844 -14.878906 25.210938 -14.078125 C 26.285156 -13.863281 29.09375 -15.027344 26.859375 -15.46875 C 22.925781 -16.417969 18.976562 -17.289062 15.023438 -18.15625 C 18.085938 -25.367188 21.328125 -32.628906 24.636719 -39.792969 C 29.25 -39.222656 33.859375 -38.652344 38.292969 -37.601562 C 39.84375 -37.207031 42.171875 -38.980469 39.972656 -39.585938 Z M 39.972656 -39.585938 "/></g></g></g><g fill="#330f0f" fill-opacity="1"><g transform="translate(107.504756, 334.988177)"><g><path d="M 24.914062 4.542969 C 19.519531 3.550781 13.949219 3.980469 8.675781 5.464844 C 12.867188 -13.722656 17.371094 -32.699219 21.71875 -51.78125 C 21.921875 -52.777344 18.496094 -52.511719 18.3125 -51.6875 C 13.828125 -32.195312 9.179688 -12.726562 5.03125 6.804688 C 4.734375 7.875 7.179688 7.320312 7.617188 7.203125 C 12.398438 5.574219 17.570312 4.929688 22.558594 5.785156 C 23.394531 5.886719 26.664062 4.839844 24.914062 4.542969 Z M 24.914062 4.542969 "/></g></g></g><g fill="#330f0f" fill-opacity="1"><g transform="translate(145.738725, 339.163583)"><g><path d="M 15.304688 -53.910156 C 12.070312 -34.171875 8.671875 -14.445312 5.691406 5.304688 C 5.550781 6.308594 9.039062 5.832031 9.167969 4.996094 C 12.070312 -14.84375 15.464844 -34.488281 18.699219 -54.222656 C 18.839844 -55.226562 15.4375 -54.746094 15.304688 -53.910156 Z M 15.304688 -53.910156 "/></g></g></g><g fill="#330f0f" fill-opacity="1"><g transform="translate(179.986984, 340.94487)"><g><path d="M 38.355469 -54.085938 C 36.484375 -60.125 27.210938 -60.304688 22.351562 -58.617188 C 15.644531 -56.398438 11.867188 -50.601562 11.480469 -43.683594 C 10.972656 -33.730469 16.261719 -25.054688 19.449219 -16.007812 C 21.308594 -10.898438 23.132812 -2.585938 17.886719 1.214844 C 12.972656 4.667969 7.195312 1.730469 4.917969 -3.117188 C 4.136719 -4.621094 0.957031 -3.21875 1.65625 -1.714844 C 6.726562 8.902344 22.871094 6.859375 24.523438 -5.050781 C 25.949219 -15.359375 18.800781 -24.425781 16.28125 -33.90625 C 14.929688 -39.023438 13.808594 -45.496094 16.335938 -50.511719 C 19.191406 -55.953125 32.59375 -60.816406 35.09375 -52.683594 C 35.625 -51.089844 38.890625 -52.410156 38.355469 -54.085938 Z M 38.355469 -54.085938 "/></g></g></g><g fill="#330f0f" fill-opacity="1"><g transform="translate(230.126976, 339.560932)"><g><path d="M 29.15625 -46 C 27.328125 -51.992188 22.777344 -51.757812 18.652344 -47.503906 C 11.933594 -40.597656 9.132812 -29.535156 6.609375 -20.621094 C 4.351562 -12.414062 2.453125 -3.992188 1.0625 4.378906 C 0.765625 6.359375 4.125 6.085938 4.382812 4.53125 C 5.550781 -2.796875 7.152344 -10.003906 9.023438 -17.066406 C 15.214844 -17.8125 21.324219 -18.550781 27.433594 -19.289062 C 27.328125 -12.328125 26.980469 -5.257812 26.375 1.757812 C 26.226562 3.554688 29.703125 2.757812 29.785156 1.140625 C 30.371094 -5.277344 30.695312 -11.753906 30.851562 -18.210938 C 31.085938 -27.136719 31.78125 -37.296875 29.15625 -46 Z M 9.636719 -19.25 C 11.207031 -25.183594 13.039062 -31.054688 15.492188 -36.65625 C 16.300781 -38.609375 20.78125 -49.003906 24.089844 -48.167969 C 26.628906 -47.425781 26.910156 -39.234375 27.015625 -37.464844 C 27.503906 -32.09375 27.566406 -26.761719 27.46875 -21.324219 C 21.527344 -20.605469 15.585938 -19.886719 9.5625 -19.160156 C 9.554688 -19.242188 9.636719 -19.25 9.636719 -19.25 Z M 9.636719 -19.25 "/></g></g></g><g fill="#330f0f" fill-opacity="1"><g transform="translate(281.569245, 333.531437)"><g><path d="M 26.59375 -50.789062 C 27.4375 -43.222656 28.300781 -35.574219 29.066406 -27.988281 C 29.625 -22.683594 30.183594 -17.382812 30.644531 -12.144531 C 30.675781 -11.546875 30.8125 -10.886719 30.945312 -10.226562 C 29.300781 -12.816406 27.394531 -15.871094 26.914062 -16.546875 C 23.511719 -21.445312 20.027344 -26.328125 16.628906 -31.230469 C 12.398438 -37.25 8.25 -43.289062 4.023438 -49.308594 C 3.390625 -50.300781 0.71875 -49.070312 0.851562 -47.980469 C 2.398438 -31.011719 3.964844 -13.957031 5.59375 2.992188 C 5.695312 4.347656 8.867188 3.019531 8.8125 1.910156 C 7.453125 -12.859375 6.027344 -27.53125 4.683594 -42.222656 C 8.167969 -37.339844 11.566406 -32.4375 14.984375 -27.457031 C 18.484375 -22.492188 22.003906 -17.441406 25.5 -12.476562 C 26.578125 -10.976562 30.019531 -4.191406 32.019531 -4.082031 C 32.894531 -4 34.28125 -4.796875 34.445312 -5.691406 C 34.933594 -7.941406 34.148438 -10.960938 33.945312 -13.242188 C 33.386719 -18.546875 32.84375 -23.765625 32.285156 -29.070312 C 31.503906 -36.738281 30.660156 -44.304688 29.878906 -51.972656 C 29.710938 -53.226562 26.523438 -51.980469 26.59375 -50.789062 Z M 26.59375 -50.789062 "/></g></g></g><g fill="#330f0f" fill-opacity="1"><g transform="translate(334.998965, 322.02486)"><g><path d="M 20.09375 -50.617188 C 17.183594 -56.164062 12.753906 -55.089844 9.496094 -50.144531 C 4.175781 -42.109375 3.480469 -30.71875 2.660156 -21.492188 C 1.96875 -13.007812 1.671875 -4.378906 1.855469 4.105469 C 1.933594 6.105469 5.183594 5.210938 5.148438 3.636719 C 4.933594 -3.78125 5.167969 -11.15625 5.695312 -18.445312 C 11.636719 -20.332031 17.503906 -22.191406 23.367188 -24.050781 C 24.558594 -17.195312 25.535156 -10.179688 26.242188 -3.175781 C 26.433594 -1.386719 29.699219 -2.8125 29.476562 -4.417969 C 28.859375 -10.832031 27.972656 -17.257812 26.929688 -23.632812 C 25.496094 -32.441406 24.289062 -42.554688 20.09375 -50.617188 Z M 5.890625 -20.707031 C 6.332031 -26.828125 7.035156 -32.9375 8.40625 -38.898438 C 8.835938 -40.964844 11.308594 -52.011719 14.714844 -51.808594 C 17.347656 -51.546875 19.148438 -43.554688 19.578125 -41.835938 C 21.058594 -36.648438 22.109375 -31.417969 23.023438 -26.0625 C 17.320312 -24.25 11.617188 -22.4375 5.835938 -20.601562 C 5.808594 -20.683594 5.890625 -20.707031 5.890625 -20.707031 Z M 5.890625 -20.707031 "/></g></g></g></svg>