<svg width="246" height="246" viewBox="0 0 246 246" fill="none" xmlns="http://www.w3.org/2000/svg">
<path d="M117.944 34.6014C114.275 35.2446 111.218 37.7174 109.421 40.9206C105.234 48.3569 107.225 57.9279 109.214 65.7409C110.369 70.3176 111.917 74.7609 113.852 79.0659C114.836 81.2441 115.92 83.3709 117.101 85.4517C118.103 87.2147 119.085 89.1109 120.561 90.5049C119.51 91.1225 118.785 92.3448 119.356 93.5543C119.607 94.0822 120.343 94.5383 121.019 94.6306C120.999 94.792 120.981 94.9509 120.955 95.0944L120.261 98.9458C119.794 101.519 119.331 104.061 119.082 106.661C119.069 106.756 119.087 106.843 119.136 106.925C118.403 111.384 117.68 115.843 116.963 120.304C116.281 124.555 115.571 128.868 116.051 133.181C116.427 136.543 117.575 140.471 120.204 142.783C122.495 144.802 125.844 144.661 126.882 141.455C127.395 139.869 127.313 138.129 127.346 136.486C127.374 134.229 127.361 131.971 127.31 129.714C127.108 120.763 126.357 111.835 125.478 102.928C125.247 100.57 125.035 98.2027 124.766 95.8452C124.784 95.8401 124.799 95.8324 124.814 95.8221C126.039 95.0969 126.775 93.5492 126.175 92.168C125.873 91.5248 125.409 91.0354 124.784 90.7022C124.784 90.2999 124.784 89.8976 124.784 89.4953C125.373 87.8707 125.711 86.1487 126.144 84.4805C126.752 82.1127 127.341 79.7399 127.889 77.3567C128.989 72.6981 129.85 67.9959 130.467 63.2502C131.049 58.5275 131.344 53.7228 131.041 48.9668C130.79 45.0411 129.855 40.9923 127.185 37.9711C124.835 35.3266 121.463 33.989 117.944 34.6014ZM123.454 96.6729L123.687 98.9202C123.869 100.719 124.048 102.52 124.225 104.319C124.561 107.771 124.873 111.223 125.153 114.682C125.683 121.527 126.026 128.386 125.985 135.254C125.973 137.212 126.634 142.531 123.682 142.836C120.763 143.139 118.9 138.875 118.208 136.699C116.171 130.27 117.896 123.259 118.918 116.801C119.518 113.034 120.107 109.262 120.689 105.49C121.019 103.361 121.411 101.198 121.696 99.0278C121.985 97.3852 122.265 95.7376 122.557 94.095C123.377 94.0566 123.405 96.2808 123.454 96.6729ZM123.479 91.6581C123.559 91.7939 123.666 91.8964 123.807 91.963C123.948 92.0296 124.094 92.0527 124.251 92.0296C124.789 92.3961 125.14 92.9444 124.917 93.6722C124.832 93.9515 124.678 94.1847 124.453 94.3692C124.051 93.2596 123.223 92.2654 121.901 92.8112C121.616 92.9291 121.414 93.1315 121.296 93.4159C121.211 93.4159 121.127 93.4006 121.045 93.3724C120.35 93.1212 120.489 92.3448 120.919 91.9169C121.55 91.2532 122.672 91.3839 123.479 91.6581ZM118.908 85.9104C117.937 84.2473 117.029 82.5509 116.184 80.8212C114.457 77.2901 113.001 73.6488 111.817 69.8973C110.659 66.2176 109.767 62.4712 109.137 58.6633C108.44 54.489 107.945 50.0918 108.945 45.92C109.831 42.23 111.91 38.6553 115.389 36.8974C115.712 36.736 116.043 36.5925 116.381 36.4644C116.368 36.5515 116.348 36.6412 116.335 36.7283C113.319 37.5637 112.025 40.8334 111.784 43.6881C111.471 47.3986 111.751 51.2269 112.048 54.9246C112.353 58.7428 112.87 62.5301 113.598 66.2919C115.169 74.3919 117.619 82.6381 121.47 89.9771C121.486 90.0334 121.496 90.0898 121.509 90.1436C121.424 90.159 121.342 90.1795 121.26 90.2051C120.673 88.6727 119.743 87.3428 118.908 85.9104ZM118.429 38.0839C118.5 38.2786 118.559 38.4759 118.603 38.6809C118.813 39.5445 118.936 40.4414 119.09 41.3152C119.41 43.0705 119.707 44.8309 119.989 46.5939C121.094 53.4999 121.929 60.4417 122.5 67.4194C122.944 72.8519 123.22 78.2972 123.333 83.7502C123.249 85.3517 123.161 86.9507 123.072 88.5497C123.003 88.191 122.915 87.8348 122.854 87.4889C122.644 86.3281 122.416 85.1698 122.231 84.009C121.878 81.8257 121.606 79.6297 121.363 77.4362C120.863 72.9134 120.435 68.388 119.958 63.8652C119.484 59.2834 119.01 54.7017 118.534 50.1148L117.816 43.2396C117.637 41.4766 117.48 39.7239 117.601 37.9737C117.883 37.9737 118.157 38.0096 118.429 38.0839ZM120.104 39.0704C121.065 39.9981 121.616 41.2793 121.942 42.5683C122.831 46.0814 123.079 49.856 123.372 53.4691C123.679 57.2411 123.82 61.0285 123.853 64.8107C123.853 65.6154 123.853 66.4174 123.853 67.2221C123.264 60.0112 122.39 52.8336 121.234 45.6843C120.924 43.7752 120.594 41.8687 120.243 39.9673C120.197 39.688 120.158 39.3856 120.104 39.0704ZM114.59 41.7124C113.924 45.1 114.359 48.6234 114.903 51.9983C115.52 55.8984 116.194 59.7908 116.842 63.6858C117.573 68.0805 118.311 72.4752 119.059 76.8673C119.446 79.1377 119.792 81.4362 120.186 83.7246C118.449 79.3939 117.024 74.9634 115.907 70.4329C114.27 63.5679 113.347 56.6082 113.14 49.5536C113.05 46.4094 112.499 42.1326 114.644 39.5138C114.887 39.2216 115.164 38.9603 115.469 38.7296C115.087 39.6983 114.792 40.6925 114.59 41.7124ZM116.166 40.9821C116.294 43.8316 116.806 46.7169 117.093 49.4588C117.585 54.1969 118.083 58.9324 118.582 63.6679C118.8 65.7435 119.013 67.8191 119.228 69.8947C119.159 69.4873 119.092 69.0747 119.028 68.6647L117.242 57.7459C116.707 54.4685 116.051 51.1834 115.756 47.8701C115.6 46.3121 115.6 44.7515 115.756 43.1935C115.83 42.4478 115.963 41.7098 116.153 40.9821H116.166ZM125.368 38.089C128.251 40.7284 129.299 44.6311 129.629 48.4031C130.006 52.7644 129.742 57.2181 129.276 61.5615C128.702 66.5712 127.838 71.5296 126.685 76.4394C126.142 78.8251 125.557 81.1979 124.95 83.5657C124.881 83.845 124.801 84.1217 124.717 84.4011C124.717 84.2217 124.717 84.0423 124.707 83.8604C125.022 77.7719 125.265 71.6782 125.232 65.5795C125.211 61.5231 125.065 57.4589 124.745 53.4179C124.576 51.2808 124.353 49.1488 124.076 47.0219C123.833 45.1666 123.628 43.2601 123.059 41.4715C122.47 39.6163 121.173 37.7354 119.405 36.941C119.251 36.7129 119.054 36.5259 118.818 36.3849C118.521 36.1953 118.193 36.1056 117.837 36.1133L117.852 36.039C118.513 35.8981 119.182 35.8366 119.858 35.8545C120.535 35.8724 121.201 35.9698 121.855 36.1492C122.505 36.326 123.128 36.5797 123.72 36.9077C124.315 37.2357 124.858 37.6303 125.355 38.089H125.368Z" fill="#330F0F"/>
<mask id="mask0_81_1768" style="mask-type:luminance" maskUnits="userSpaceOnUse" x="131" y="65" width="60" height="38">
<path d="M131.2 65.6H190.668V102.992H131.2V65.6Z" fill="white"/>
</mask>
<g mask="url(#mask0_81_1768)">
<path d="M189.563 85.1365C189.03 85.2723 188.523 85.4645 188.034 85.7131C185.799 85.28 183.544 84.9315 181.307 84.5702C178.816 84.1704 176.277 83.8501 173.753 84.0244C171.698 84.1397 169.732 84.6189 167.857 85.4645C166.516 86.0923 165.004 87.0481 164.172 88.3576H164.154C161.368 88.3857 158.511 89.3518 155.803 89.9309C154.411 90.2333 153.007 90.5331 151.615 90.8586C151.226 90.9482 150.829 91.0328 150.429 91.1199C154.952 88.9726 159.393 86.2717 163.029 82.861C163.134 82.8661 163.224 82.8328 163.3 82.7559C163.347 82.7098 163.39 82.6611 163.434 82.615C164.305 82.7098 165.353 82.3818 166.145 82.2153C167.352 81.9744 168.541 81.6669 169.714 81.3004C172.005 80.5804 174.204 79.6476 176.315 78.5022C178.368 77.3849 180.295 76.0781 182.094 74.5841C183.77 73.1927 185.607 71.6373 186.501 69.6154H186.965C187.734 69.6154 187.66 68.5341 186.95 68.4546C182.004 67.8883 176.83 69.3566 172.554 71.8166C170.424 73.0415 168.5 74.5329 166.783 76.2882C165.953 77.1415 165.189 78.0486 164.489 79.0121C163.951 79.7578 163.329 80.5829 162.965 81.467C162.906 81.5003 162.849 81.5336 162.793 81.5721C162.737 81.59 162.685 81.6182 162.639 81.6541C160.438 83.3171 158.232 84.9264 155.964 86.4152C156.274 86.1026 156.571 85.7874 156.863 85.4876C158.565 83.7015 160.074 81.7668 161.396 79.6886C162.683 77.654 163.762 75.5169 164.633 73.2721C165.094 72.1011 165.481 70.9044 165.794 69.6846C165.96 69.0184 166.258 68.1292 166.209 67.3656L166.673 67.0837C166.765 67.0222 166.824 66.9376 166.855 66.83C166.885 66.7224 166.88 66.6173 166.834 66.5174C166.791 66.4149 166.719 66.338 166.619 66.2893C166.519 66.2381 166.416 66.2253 166.309 66.2483C162.019 67.4629 158.696 71.34 156.512 75.0505C155.231 77.2773 154.191 79.6118 153.389 82.0538C152.694 84.0705 151.997 86.1692 151.738 88.3037C151.446 88.5882 151.159 88.8803 150.888 89.1852C150.811 89.2801 150.778 89.3877 150.785 89.5081C149.978 89.9335 149.158 90.3384 148.323 90.7227C145.704 91.9169 143.011 92.9239 140.248 93.7388C137.514 94.5511 134.629 94.8971 131.925 95.7786C131.856 95.8016 131.8 95.8452 131.761 95.9093C131.723 95.9733 131.71 96.0399 131.72 96.1143C131.73 96.186 131.764 96.2475 131.82 96.2987C131.874 96.3474 131.941 96.3731 132.012 96.3756C134.662 96.4807 137.47 95.7222 140.035 95.0098C140.881 95.2661 141.781 95.3301 142.662 95.448L144.315 95.6581C144.364 95.8324 144.476 95.9451 144.648 95.9989C145.576 96.309 146.572 96.3705 147.508 96.6959C148.492 97.0803 149.427 97.5621 150.314 98.1386C152.133 99.261 153.842 100.576 155.785 101.48C157.855 102.421 160.026 102.831 162.296 102.708C163.439 102.628 164.569 102.474 165.689 102.244C166.404 102.08 167.129 101.977 167.862 101.936C168.497 101.936 169.033 102.044 169.666 101.893C170.301 101.739 170.217 100.84 169.65 100.65C164.635 99.0047 159.608 97.1111 154.442 95.9861C151.918 95.4352 149.36 95.0303 146.788 94.7151C145.524 94.5588 144.256 94.4256 142.985 94.3512L142.334 94.3128C144.358 93.6747 146.342 92.9316 148.287 92.0809C149.391 92.0476 150.508 91.8092 151.59 91.6453C153.009 91.4274 154.424 91.1814 155.838 90.9482C158.442 90.5049 161.338 90.323 163.846 89.4492C163.89 89.4594 163.928 89.4543 163.964 89.4312L164.044 89.3774L164.1 89.3569C164.73 89.9386 165.858 90.0155 166.652 90.1667C167.757 90.3614 168.871 90.4947 169.991 90.5639C172.397 90.7202 174.793 90.6407 177.181 90.3204C179.431 90.0283 181.638 89.5491 183.803 88.8778C184.948 88.5216 186.076 88.109 187.186 87.6452C187.785 87.3966 188.439 87.1532 189.041 86.8457H189.274C189.374 86.838 189.461 86.7996 189.535 86.7329C189.61 86.6663 189.658 86.5817 189.676 86.4844C189.84 86.3793 189.994 86.264 190.14 86.1359C190.632 85.7054 190.097 85.0238 189.563 85.1365ZM165.161 80.1781C165.896 79.1608 166.703 78.2075 167.582 77.3132C169.263 75.5938 171.152 74.1434 173.243 72.9595C177.11 70.7686 181.32 69.7769 185.707 69.6283C184.172 70.7378 182.896 72.2189 181.428 73.4208C179.608 74.9044 177.666 76.2062 175.598 77.3234C173.597 78.4074 171.508 79.2889 169.335 79.9705C168.22 80.3164 167.09 80.6086 165.947 80.8443C165.545 80.9289 165.074 80.9673 164.602 81.0288C164.776 80.7393 164.961 80.4497 165.161 80.1781ZM154.327 83.1454C155.129 80.7188 156.154 78.3869 157.399 76.1549C158.46 74.2766 159.749 72.57 161.266 71.0325C162.406 69.9281 163.651 68.9518 164.997 68.1087C164.912 68.4239 164.838 68.7391 164.748 69.0235C164.413 70.1151 164.054 71.1965 163.639 72.2702C162.76 74.5175 161.678 76.6623 160.389 78.7021C159.139 80.6931 157.712 82.5484 156.11 84.2678C155.164 85.28 154.091 86.1692 153.048 87.0814C153.507 85.772 153.873 84.4395 154.324 83.1454H154.327ZM167.564 101.126C166.99 101.326 166.404 101.462 165.799 101.531C164.564 101.626 163.326 101.636 162.088 101.56C159.59 101.488 157.261 100.827 155.098 99.5788C153.491 98.6511 152.005 97.5108 150.398 96.5627C151.641 96.7959 152.874 97.0265 154.111 97.2981C158.703 98.2847 163.226 99.3276 167.562 101.126H167.564ZM183.442 87.5452C181.202 88.2474 178.919 88.7368 176.59 89.0161C174.399 89.2698 172.203 89.3467 170.001 89.2467C168.938 89.2032 167.877 89.1084 166.819 89.0161C166.227 88.9597 165.537 88.7829 164.897 88.7829C166.14 87.8784 167.29 86.9584 168.797 86.3793C170.729 85.6669 172.725 85.3107 174.783 85.3082C178.496 85.2595 182.117 86.3434 185.779 86.7278C185.007 87.0251 184.228 87.2992 183.439 87.5452H183.442Z" fill="#330F0F"/>
</g>
<path d="M145.596 71.2247C145.596 71.1863 145.578 71.1453 145.571 71.1068C145.453 70.643 144.835 70.8044 144.797 71.2221C144.471 74.8891 144.612 78.4971 143.825 82.1256C143.154 85.2288 142.342 88.314 139.677 90.2794C139.633 90.3076 139.618 90.3461 139.631 90.3973C139.646 90.4511 139.679 90.4768 139.733 90.4768C140.41 90.4844 141.022 90.2948 141.578 89.9104C141.709 89.9668 141.837 89.9617 141.963 89.8951C143.679 88.8675 145.048 87.0763 146.232 85.4876C147.508 83.7758 148.551 81.8411 149.002 79.7373C149.706 76.4138 148.733 72.7417 145.596 71.2247ZM147.372 80.5471C146.772 82.3562 145.727 83.9834 144.525 85.4491C144.389 85.6131 144.248 85.7771 144.105 85.936C144.405 85.0648 144.63 84.2089 144.799 83.517C145.727 79.9423 146.424 75.809 145.768 72.0985C146.088 72.4598 146.391 72.8365 146.675 73.2286C147.075 73.8743 147.377 74.5636 147.582 75.2965C148.054 77.0672 147.982 78.8199 147.372 80.5471Z" fill="#330F0F"/>
<path d="M166.901 93.029C166.365 92.9573 165.568 93.3237 165.65 93.9131C165.348 94.0386 165.153 94.2564 165.063 94.5691C164.994 94.874 165.025 95.1687 165.153 95.4531C165.284 95.7376 165.486 95.9528 165.76 96.1014C166.04 96.2475 166.337 96.3013 166.652 96.2629C166.965 96.227 167.242 96.104 167.48 95.8939C168.441 95.1021 168.325 93.2212 166.901 93.029ZM166.319 94.9253C166.088 94.792 166.186 94.5537 166.368 94.4614H166.427L166.519 94.4384C166.614 94.4435 166.693 94.4845 166.752 94.5614C166.762 94.5742 166.778 94.5844 166.796 94.5921C166.755 94.8099 166.506 95.0278 166.319 94.9253Z" fill="#330F0F"/>
<path d="M186.865 79.8885C186.719 79.7322 186.545 79.6246 186.337 79.5708C186.13 79.5144 185.922 79.5221 185.72 79.5887C185.602 79.6348 185.497 79.6938 185.397 79.7706C185.128 79.8885 184.943 80.0858 184.843 80.3626C184.81 80.4625 184.792 80.5624 184.787 80.6675C184.782 80.77 184.79 80.8725 184.81 80.975C184.833 81.0775 184.866 81.1749 184.913 81.2671C184.959 81.3594 185.018 81.4465 185.087 81.5234C185.156 81.6028 185.233 81.6694 185.32 81.7284C185.405 81.7848 185.497 81.8309 185.597 81.8642C185.694 81.9001 185.797 81.9206 185.899 81.9283C186.004 81.9359 186.107 81.9283 186.209 81.9103C187.08 81.7156 187.508 80.5522 186.865 79.8885Z" fill="#330F0F"/>
<path d="M135.905 85.7182C135.848 85.6157 135.777 85.526 135.687 85.4491C135.595 85.3723 135.495 85.3159 135.385 85.2774C135.272 85.2364 135.156 85.2185 135.039 85.2236C134.921 85.2262 134.808 85.2518 134.7 85.2954C134.421 85.4286 134.272 85.649 134.252 85.9565C134.019 86.0436 133.865 86.2025 133.788 86.4383C133.734 86.6202 133.734 86.8047 133.786 86.9892C133.837 87.1737 133.934 87.33 134.075 87.4581C134.221 87.5965 134.39 87.6862 134.585 87.7349C134.78 87.781 134.972 87.7759 135.164 87.7195C135.587 87.576 135.869 87.289 136.002 86.8611C136.148 86.4664 136.117 86.0846 135.905 85.7182Z" fill="#330F0F"/>
<path d="M174.399 64.8415C173.525 64.2624 172.136 64.8415 172.115 65.9357C172.113 66.0484 172.139 66.1561 172.192 66.2534C172.182 66.5558 172.267 66.8274 172.443 67.0734C172.582 67.2374 172.748 67.3681 172.943 67.4629C173.138 67.5577 173.343 67.609 173.558 67.6167C173.773 67.6244 173.981 67.5885 174.183 67.5065C174.383 67.4271 174.558 67.3066 174.709 67.1529C174.852 66.9837 174.957 66.7916 175.019 66.5789C175.083 66.3662 175.098 66.1484 175.07 65.928C175.039 65.7076 174.968 65.5026 174.85 65.313C174.734 65.1234 174.583 64.9671 174.399 64.8415ZM173.717 66.2791C173.717 66.2483 173.64 66.3175 173.686 66.3047C173.533 66.3406 173.502 66.3739 173.392 66.3047C173.366 66.2739 173.348 66.2406 173.338 66.2022C173.376 66.1612 173.41 66.1151 173.44 66.0689C173.471 66.0433 173.507 66.01 173.476 66.0228C173.599 65.9741 173.579 65.9792 173.65 65.9844C173.599 65.9844 173.673 66.0202 173.673 66.0074C173.732 66.0741 173.758 66.1509 173.748 66.2406C173.743 66.1971 173.743 66.2457 173.717 66.2867V66.2791Z" fill="#330F0F"/>
<mask id="mask1_81_1768" style="mask-type:luminance" maskUnits="userSpaceOnUse" x="55" y="65" width="60" height="38">
<path d="M55.3679 65.6H114.8V102.992H55.3679V65.6Z" fill="white"/>
</mask>
<g mask="url(#mask1_81_1768)">
<path d="M55.8548 86.1231C56.0009 86.2486 56.1572 86.3665 56.3186 86.469C56.3391 86.5689 56.3853 86.6509 56.4596 86.7176C56.5364 86.7868 56.6236 86.8226 56.7235 86.8329H56.9541C57.5589 87.1378 58.2097 87.3813 58.8119 87.6324C59.9164 88.0962 61.0464 88.5062 62.1893 88.8649C64.3572 89.5338 66.5635 90.0155 68.8134 90.3076C71.2016 90.6254 73.6001 90.7074 76.0037 90.5511C77.1261 90.4819 78.2383 90.3486 79.3453 90.1513C80.1473 90.0001 81.2748 89.9207 81.8975 89.3416L81.9488 89.3621C81.9769 89.38 82.0026 89.3979 82.0282 89.4159C82.0666 89.4415 82.1051 89.4466 82.1486 89.4338C84.6599 90.3102 87.5529 90.4896 90.1564 90.9354C91.5709 91.1686 92.988 91.4172 94.4076 91.6324C95.4864 91.7964 96.6063 92.0322 97.7107 92.0681C99.6531 92.9163 101.639 93.6619 103.661 94.3L103.01 94.3384C101.739 94.4102 100.471 94.546 99.2072 94.6998C96.6447 95.0149 94.0873 95.4224 91.553 95.9708C86.387 97.0957 81.3594 98.9868 76.3446 100.637C75.7782 100.824 75.6758 101.721 76.3292 101.877C76.9826 102.036 77.49 101.918 78.1332 101.921C78.8661 101.964 79.5913 102.067 80.3062 102.231C81.4286 102.459 82.5586 102.615 83.6989 102.695C85.9693 102.825 88.1423 102.426 90.2179 101.493C92.1603 100.588 93.8695 99.2738 95.6889 98.1489C96.5806 97.5698 97.5211 97.088 98.5127 96.7011C99.4404 96.3679 100.435 96.3064 101.37 96.0066C101.542 95.9528 101.654 95.8375 101.703 95.6658L103.356 95.4531C104.237 95.3378 105.134 95.2738 105.985 95.0149C108.55 95.7299 111.356 96.4884 114.006 96.3833C114.08 96.3808 114.144 96.3551 114.2 96.3039C114.254 96.2552 114.287 96.1937 114.298 96.1219C114.311 96.0476 114.295 95.9784 114.257 95.9169C114.218 95.8529 114.165 95.8093 114.093 95.7863C111.392 94.8971 108.507 94.5588 105.77 93.7439C103.007 92.9291 100.317 91.9246 97.6953 90.7279C96.8599 90.3461 96.0399 89.9412 95.2353 89.5158C95.243 89.3954 95.2071 89.2878 95.1303 89.1929C94.8586 88.888 94.5742 88.5959 94.2821 88.3089C94.0207 86.1743 93.316 84.0756 92.6293 82.0615C91.8272 79.6194 90.7868 77.285 89.5081 75.0582C87.3223 71.3451 84.0013 67.4706 79.7117 66.256C79.6015 66.2329 79.499 66.2458 79.3991 66.2944C79.3017 66.3457 79.2299 66.4226 79.1838 66.5225C79.1403 66.625 79.1326 66.7301 79.1633 66.8377C79.1941 66.9428 79.2556 67.0273 79.3478 67.0914L79.8116 67.3733C79.7501 68.1369 80.0602 69.0286 80.2268 69.6923C80.5394 70.9121 80.9263 72.1088 81.385 73.2798C82.2588 75.522 83.3351 77.6617 84.6214 79.6938C85.9437 81.7745 87.4556 83.7092 89.1545 85.4927C89.4466 85.8028 89.7464 86.1154 90.0514 86.4203C87.781 84.9315 85.5798 83.3248 83.3812 81.6618C83.3351 81.6259 83.2813 81.5977 83.2249 81.5798C83.1711 81.5413 83.1121 81.5054 83.0532 81.4747C82.6842 80.5906 82.0692 79.7629 81.5311 79.0198C80.8315 78.0563 80.0653 77.1492 79.2351 76.2959C77.5182 74.538 75.5938 73.0441 73.4618 71.8192C69.1875 69.3566 64.0138 67.8909 59.081 68.4572C58.3584 68.5392 58.2943 69.618 59.0631 69.618H59.5269C60.4212 71.6398 62.2559 73.1978 63.9344 74.5867C65.7358 76.0781 67.6628 77.3824 69.7154 78.4971C71.8269 79.6425 74.0255 80.5753 76.3164 81.2953C77.49 81.6618 78.679 81.9693 79.8859 82.2101C80.6778 82.3716 81.7258 82.7047 82.5945 82.6099L82.7303 82.7508C82.8046 82.8277 82.8943 82.861 82.9994 82.8559C86.6381 86.2666 91.0789 88.9674 95.5992 91.1174C95.202 91.0277 94.8048 90.9457 94.4128 90.8534C93.0213 90.5331 91.6299 90.2333 90.2384 89.9258C87.5324 89.3467 84.6701 88.3806 81.8873 88.355H81.8668C81.0339 87.043 79.5221 86.0872 78.1819 85.4594C76.3061 84.6138 74.3433 84.1346 72.2881 84.0218C69.7589 83.845 67.2246 84.1679 64.7339 84.5651C62.4866 84.9264 60.2316 85.2749 58.0048 85.7105C57.5179 85.4594 57.0105 85.2672 56.4801 85.1314C55.9138 85.0238 55.3782 85.7054 55.8548 86.1231ZM81.4183 81.0186C80.9545 80.9596 80.4779 80.9186 80.073 80.8366C78.9276 80.5983 77.8001 80.3088 76.6854 79.9603C74.5073 79.2812 72.4137 78.3997 70.4047 77.3132C68.3419 76.2011 66.3995 74.9044 64.5827 73.4233C63.1144 72.2215 61.8383 70.7429 60.3033 69.6334C64.6878 69.7846 68.8928 70.7763 72.7673 72.9595C74.8583 74.1408 76.7469 75.5912 78.4304 77.3055C79.3094 78.1998 80.1166 79.1531 80.852 80.1704C81.0493 80.4497 81.2338 80.7393 81.4183 81.0288V81.0186ZM92.9624 87.0507C91.9169 86.1359 90.8458 85.2467 89.9002 84.2371C88.2961 82.5151 86.8713 80.6598 85.6183 78.6688C84.3319 76.629 83.2479 74.4868 82.3716 72.2394C81.9564 71.1734 81.5977 70.0895 81.2594 68.9902C81.1698 68.7058 81.098 68.3906 81.0134 68.0754C82.3588 68.921 83.6016 69.8948 84.7419 70.9992C86.2614 72.5469 87.5504 74.2638 88.6087 76.1549C89.8541 78.3869 90.8765 80.7188 91.6811 83.1454C92.1321 84.4395 92.5011 85.772 92.9624 87.0686V87.0507ZM91.9066 97.3161C93.1392 97.0547 94.3743 96.8061 95.6171 96.5806C94.013 97.5108 92.5242 98.6511 90.9175 99.5967C88.7548 100.845 86.4254 101.506 83.9296 101.578C82.6919 101.654 81.4542 101.644 80.2165 101.549C79.6143 101.48 79.0275 101.344 78.4535 101.144C82.7841 99.3276 87.3069 98.2847 91.9066 97.3161ZM60.2316 86.7304C63.8934 86.346 67.5244 85.2621 71.2247 85.3108C73.2849 85.3133 75.2811 85.6695 77.2158 86.3819C78.7226 86.9584 79.8731 87.8809 81.1134 88.7855C80.4753 88.7727 79.786 88.9546 79.1941 89.0161C78.1332 89.1161 77.0749 89.2109 76.0114 89.2493C73.8077 89.3493 71.6116 89.2698 69.4207 89.0161C67.0914 88.7368 64.8082 88.2474 62.5711 87.5478C61.7819 87.3018 61.0029 87.0276 60.2316 86.7304Z" fill="#330F0F"/>
</g>
<path d="M97.0009 79.7296C97.4442 81.8334 98.4948 83.7707 99.7684 85.4799C100.952 87.0635 102.321 88.8547 104.037 89.8874C104.163 89.9643 104.296 89.9745 104.432 89.9207C104.986 90.3051 105.601 90.4947 106.277 90.4844C106.331 90.4844 106.364 90.4588 106.377 90.4076C106.392 90.3563 106.377 90.3179 106.331 90.2871C103.668 88.3243 102.854 85.239 102.185 82.1358C101.398 78.5022 101.536 74.8942 101.214 71.2324C101.175 70.8147 100.555 70.6558 100.44 71.1171C100.44 71.1555 100.424 71.1939 100.414 71.2349C97.2776 72.7417 96.3039 76.4138 97.0009 79.7296ZM98.4128 75.2965C98.6204 74.5636 98.9227 73.8743 99.3251 73.2286C99.6069 72.8365 99.9093 72.4598 100.232 72.0985C99.5659 75.8116 100.258 79.9423 101.198 83.517C101.38 84.214 101.606 85.0648 101.895 85.936C101.752 85.7771 101.608 85.6131 101.472 85.4491C100.271 83.9834 99.2277 82.3562 98.6255 80.5471C98.0156 78.8199 97.9464 77.0698 98.4128 75.2965Z" fill="#330F0F"/>
<path d="M78.5381 95.8939C78.7738 96.104 79.0506 96.227 79.3632 96.2654C79.6784 96.3013 79.9731 96.2475 80.2549 96.1014C80.5291 95.9528 80.7316 95.7376 80.8597 95.4531C80.9904 95.1687 81.0186 94.874 80.9494 94.5691C80.8597 94.2564 80.6649 94.0386 80.3651 93.9131C80.4471 93.3237 79.6476 92.9573 79.1121 93.029C77.6848 93.2212 77.5643 95.1021 78.5381 95.8939ZM79.2325 94.5973C79.2504 94.5896 79.2658 94.5793 79.2786 94.5665C79.335 94.4896 79.4144 94.4486 79.5093 94.4435L79.5989 94.4666H79.6604C79.8424 94.5486 79.9474 94.7894 79.7066 94.9304C79.5041 95.0278 79.253 94.8099 79.2223 94.5973H79.2325Z" fill="#330F0F"/>
<path d="M59.8011 81.9103C59.9036 81.9283 60.0061 81.9334 60.1111 81.9283C60.2136 81.9206 60.3161 81.9001 60.4135 81.8642C60.5109 81.8309 60.6031 81.7848 60.6902 81.7284C60.7774 81.6694 60.8542 81.6028 60.9234 81.5234C60.9926 81.4465 61.0516 81.3594 61.0977 81.2671C61.1438 81.1749 61.1771 81.0775 61.2002 80.975C61.2207 80.8725 61.2284 80.77 61.2232 80.6675C61.2181 80.5624 61.2002 80.4625 61.1669 80.3626C61.0669 80.0858 60.8824 79.8885 60.6108 79.7706C60.5134 79.6938 60.4058 79.6348 60.2905 79.5887C60.0855 79.5221 59.8805 79.5144 59.6729 79.5708C59.4654 79.6246 59.2886 79.7322 59.1451 79.8885C58.4993 80.5522 58.9298 81.7156 59.8011 81.9103Z" fill="#330F0F"/>
<path d="M110.103 85.7182C110.162 85.6157 110.234 85.526 110.323 85.4491C110.413 85.3723 110.515 85.3159 110.626 85.2774C110.738 85.2364 110.851 85.2185 110.969 85.2236C111.087 85.2262 111.202 85.2518 111.31 85.2954C111.589 85.4286 111.738 85.649 111.758 85.9565C111.989 86.0436 112.145 86.2025 112.222 86.4383C112.276 86.6202 112.276 86.8047 112.225 86.9892C112.171 87.1737 112.076 87.33 111.935 87.4581C111.789 87.5965 111.62 87.6862 111.425 87.7349C111.23 87.781 111.038 87.7759 110.846 87.7195C110.423 87.576 110.141 87.289 110.006 86.8611C109.859 86.4664 109.893 86.0846 110.103 85.7182Z" fill="#330F0F"/>
<path d="M71.299 67.1606C71.4502 67.3169 71.6244 67.4347 71.8269 67.5167C72.0268 67.5987 72.2343 67.6346 72.4496 67.6269C72.6674 67.6192 72.8724 67.568 73.0671 67.4732C73.2619 67.3784 73.4284 67.2477 73.5668 67.0811C73.7436 66.8377 73.8282 66.5661 73.8179 66.2637C73.8718 66.1637 73.8974 66.0587 73.8923 65.9459C73.8743 64.8517 72.4854 64.2701 71.6091 64.8517C71.4246 64.9773 71.2759 65.1336 71.1581 65.3232C71.0428 65.5129 70.9684 65.7179 70.9403 65.9382C70.9095 66.1586 70.9274 66.3739 70.9889 66.5866C71.053 66.7992 71.1555 66.9914 71.299 67.1606ZM72.2625 66.2329C72.2523 66.1458 72.2753 66.0689 72.3343 66.0023C72.3343 66.0126 72.4111 65.9767 72.3599 65.9767C72.4316 65.9767 72.4111 65.9664 72.5341 66.0151C72.5034 66.0023 72.5341 66.0356 72.57 66.0612C72.5982 66.1099 72.6315 66.1535 72.6699 66.1971C72.6597 66.2329 72.6418 66.2688 72.6187 66.297C72.5085 66.3739 72.4726 66.3406 72.3214 66.297C72.3676 66.297 72.2856 66.2432 72.2933 66.2714C72.2753 66.2457 72.2625 66.1971 72.2625 66.2329Z" fill="#330F0F"/>
<path d="M59.3859 152.348C57.1566 150.808 54.1277 150.506 51.4729 150.962C51.1911 150.957 50.9322 151.006 50.8887 151.149C47.2294 158.391 43.6599 165.699 39.8597 172.859C39.7341 173.017 40.1031 173.128 40.221 173.123C47.5728 174.263 57.2847 170.934 60.7261 164.028C62.5814 160.338 63.2527 154.967 59.3859 152.348ZM59.3911 163.39C56.6645 169.627 49.0949 172.751 42.5939 172.828C41.2716 172.838 41.4125 173.153 41.843 172.128C42.2146 171.27 42.7476 170.432 43.1525 169.594C44.4491 167.096 45.7175 164.589 46.9783 162.078C48.8028 158.496 50.6042 154.944 52.3826 151.387C54.9297 150.901 57.8638 151.818 59.4397 153.917C61.3949 156.625 60.6877 160.53 59.3911 163.39Z" stroke="#330F0F" stroke-width="5.85041"/>
<path d="M82.902 158.949C80.5163 158.36 78.0281 158.099 75.5425 157.768C75.1965 157.737 74.7455 157.84 74.5969 158.201C72.3342 163.111 70.0638 168.067 68.0523 173.064C67.445 174.588 65.8203 177.235 66.2329 178.921C66.6788 181.007 70.2919 181.13 71.9319 181.151C72.9082 181.143 72.8365 180.154 71.8602 180.113C70.848 180.113 69.29 180.072 68.4264 179.472C67.4373 178.77 67.8729 177.919 68.1881 176.961C68.9722 174.537 70.028 172.205 71.0376 169.855C71.0658 169.707 71.1324 169.568 71.1939 169.456C72.8493 169.822 74.5303 170.204 76.178 170.568C76.6648 170.665 77.9435 170.135 76.9339 169.935C75.1376 169.502 73.3362 169.097 71.5424 168.705C72.9364 165.427 74.4124 162.119 75.9192 158.854C78.0178 159.118 80.1165 159.37 82.1307 159.856C82.8405 160.036 83.8988 159.223 82.902 158.949Z" stroke="#330F0F" stroke-width="5.85041"/>
<path d="M96.9625 182.909C94.5076 182.453 91.963 182.652 89.5696 183.326C91.4761 174.591 93.5236 165.95 95.5018 157.25C95.6018 156.802 94.0412 156.922 93.9566 157.299C91.9092 166.178 89.8003 175.039 87.9091 183.936C87.7682 184.421 88.8829 184.167 89.0879 184.118C91.2609 183.38 93.621 183.08 95.8862 183.467C96.2655 183.513 97.7594 183.045 96.9625 182.909Z" stroke="#330F0F" stroke-width="5.85042"/>
<path d="M109.995 158.191C108.53 167.172 106.977 176.159 105.619 185.156C105.557 185.612 107.146 185.394 107.205 185.013C108.524 175.975 110.067 167.037 111.543 158.045C111.607 157.589 110.057 157.809 109.995 158.191Z" stroke="#330F0F" stroke-width="5.85041"/>
<path d="M136.092 158.919C135.241 156.169 131.013 156.09 128.804 156.858C125.747 157.865 124.022 160.51 123.851 163.652C123.618 168.19 126.029 172.141 127.477 176.259C128.322 178.588 129.155 182.378 126.767 184.105C124.535 185.679 121.898 184.339 120.865 182.135C120.507 181.446 119.056 182.081 119.377 182.768C121.68 187.603 129.04 186.67 129.791 181.251C130.442 176.556 127.185 172.431 126.034 168.113C125.424 165.781 124.914 162.826 126.065 160.551C127.364 158.073 133.463 155.851 134.603 159.562C134.852 160.287 136.33 159.682 136.092 158.919Z" stroke="#330F0F" stroke-width="5.85041"/>
<path d="M154.737 161.968C153.899 159.239 151.828 159.349 149.952 161.281C146.885 164.428 145.617 169.471 144.466 173.525C143.433 177.261 142.572 181.105 141.942 184.913C141.804 185.812 143.333 185.686 143.449 184.987C143.987 181.651 144.71 178.368 145.563 175.149C148.382 174.811 151.164 174.476 153.945 174.132C153.896 177.302 153.742 180.523 153.471 183.718C153.396 184.536 154.98 184.18 155.024 183.439C155.285 180.518 155.431 177.563 155.505 174.624C155.608 170.563 155.933 165.937 154.737 161.968ZM145.842 174.15C146.562 171.454 147.398 168.774 148.51 166.222C148.876 165.335 150.916 160.605 152.425 160.981C153.583 161.327 153.709 165.056 153.758 165.86C153.981 168.305 154.004 170.734 153.968 173.207C151.259 173.533 148.553 173.861 145.809 174.191C145.806 174.153 145.842 174.15 145.842 174.15Z" stroke="#330F0F" stroke-width="5.85041"/>
<path d="M198.366 151.877C197.036 149.353 195.022 149.845 193.538 152.095C191.111 155.754 190.801 160.948 190.424 165.143C190.104 169.007 189.973 172.943 190.063 176.802C190.091 177.712 191.575 177.305 191.555 176.595C191.465 173.215 191.565 169.858 191.806 166.537C194.512 165.678 197.182 164.833 199.849 163.977C200.393 167.103 200.838 170.296 201.166 173.484C201.248 174.301 202.735 173.656 202.64 172.923C202.355 170.004 201.951 167.072 201.474 164.172C200.821 160.161 200.28 155.557 198.366 151.877ZM191.893 165.502C192.1 162.719 192.421 159.928 193.041 157.217C193.236 156.277 194.358 151.249 195.913 151.336C197.115 151.464 197.933 155.103 198.13 155.885C198.804 158.245 199.278 160.628 199.701 163.062C197.102 163.887 194.504 164.712 191.867 165.548C191.857 165.512 191.893 165.502 191.893 165.502Z" stroke="#330F0F" stroke-width="5.85041"/>
<path d="M59.3843 152.345C57.1575 150.805 54.126 150.508 51.4687 150.961C51.1894 150.959 50.9357 151.002 50.8922 151.151C47.2278 158.39 43.6633 165.698 39.8632 172.858C39.735 173.022 40.1015 173.129 40.2245 173.127C47.5712 174.262 57.283 170.933 60.727 164.027C62.5823 160.335 63.2485 154.969 59.3843 152.345ZM59.3945 163.394C56.668 169.629 49.0984 172.753 42.5922 172.827C41.27 172.835 41.4135 173.158 41.8414 172.125C42.213 171.274 42.7434 170.429 43.1508 169.591C44.45 167.092 45.7133 164.586 46.9767 162.077C48.7986 158.495 50.6077 154.948 52.381 151.392C54.9281 150.905 57.8596 151.812 59.4381 153.921C61.3984 156.622 60.6809 160.532 59.3945 163.394Z" fill="#330F0F"/>
<path d="M82.9021 158.948C80.5138 158.356 78.0231 158.097 75.5451 157.764C75.1992 157.734 74.7482 157.841 74.5996 158.203C72.3343 163.112 70.0639 168.063 68.0549 173.062C67.4399 174.585 65.8204 177.237 66.2304 178.923C66.6763 181.006 70.2894 181.134 71.9294 181.147C72.9083 181.145 72.8314 180.153 71.8602 180.117C70.8455 180.109 69.2875 180.076 68.4291 179.474C67.4322 178.769 67.8756 177.918 68.1831 176.963C68.9749 174.536 70.0255 172.201 71.0377 169.859C71.0684 169.708 71.1351 169.565 71.194 169.46C72.8442 169.826 74.5304 170.2 76.1781 170.564C76.6675 170.661 77.9462 170.134 76.9314 169.931C75.1377 169.498 73.3388 169.103 71.5399 168.706C72.9339 165.424 74.4099 162.115 75.9167 158.856C78.0179 159.115 80.1166 159.374 82.1359 159.853C82.8431 160.032 83.904 159.225 82.9021 158.948Z" fill="#330F0F"/>
<path d="M96.9616 182.908C94.5041 182.454 91.9673 182.649 89.5662 183.325C91.4727 174.587 93.5253 165.946 95.5061 157.257C95.5983 156.803 94.0378 156.924 93.9532 157.3C91.9135 166.174 89.7943 175.043 87.9057 183.938C87.7699 184.422 88.8846 184.171 89.0845 184.117C91.26 183.376 93.615 183.082 95.8879 183.471C96.2697 183.517 97.756 183.041 96.9616 182.908Z" fill="#330F0F"/>
<path d="M109.996 158.19C108.523 167.176 106.975 176.161 105.617 185.155C105.553 185.611 107.142 185.393 107.203 185.014C108.523 175.979 110.071 167.033 111.541 158.046C111.606 157.588 110.055 157.808 109.996 158.19Z" fill="#330F0F"/>
<path d="M136.091 158.919C135.238 156.169 131.015 156.087 128.801 156.856C125.746 157.866 124.027 160.505 123.85 163.657C123.619 168.19 126.028 172.139 127.481 176.259C128.327 178.586 129.157 182.373 126.769 184.103C124.532 185.677 121.897 184.339 120.862 182.13C120.506 181.446 119.058 182.084 119.376 182.768C121.685 187.604 129.039 186.673 129.79 181.249C130.441 176.557 127.184 172.426 126.036 168.111C125.421 165.779 124.911 162.832 126.062 160.549C127.363 158.068 133.467 155.854 134.605 159.56C134.846 160.285 136.332 159.683 136.091 158.919Z" fill="#330F0F"/>
<path d="M154.732 161.971C153.902 159.244 151.829 159.35 149.951 161.287C146.891 164.431 145.615 169.469 144.467 173.528C143.437 177.267 142.573 181.103 141.94 184.913C141.804 185.815 143.334 185.689 143.452 184.982C143.983 181.646 144.713 178.366 145.566 175.147C148.385 174.807 151.168 174.471 153.948 174.135C153.902 177.305 153.743 180.526 153.466 183.719C153.4 184.539 154.983 184.175 155.019 183.44C155.286 180.516 155.434 177.566 155.506 174.625C155.611 170.563 155.929 165.935 154.732 161.971ZM145.845 174.153C146.56 171.452 147.393 168.777 148.51 166.227C148.879 165.338 150.919 160.605 152.426 160.984C153.582 161.323 153.71 165.054 153.758 165.858C153.981 168.305 154.01 170.732 153.966 173.208C151.26 173.536 148.554 173.864 145.812 174.194C145.807 174.156 145.845 174.153 145.845 174.153Z" fill="#330F0F"/>
<path d="M175.495 157.13C175.497 157.157 175.499 157.184 175.502 157.211C175.548 157.627 175.595 158.043 175.641 158.459C175.981 161.498 176.322 164.549 176.625 167.577L176.625 167.577L176.626 167.586C176.697 168.255 176.768 168.924 176.837 169.59C176.603 169.258 176.37 168.927 176.138 168.596C175.324 167.44 174.513 166.288 173.687 165.097L173.687 165.097L173.682 165.089C172.669 163.648 171.703 162.258 170.736 160.865C169.825 159.553 168.912 158.239 167.955 156.875C167.506 156.205 166.801 156.062 166.389 156.053C165.958 156.045 165.562 156.16 165.26 156.292C164.953 156.426 164.62 156.632 164.345 156.919C164.106 157.169 163.696 157.715 163.777 158.475C164.481 166.195 165.193 173.954 165.935 181.671C165.969 182.062 166.131 182.477 166.476 182.803C166.804 183.113 167.179 183.231 167.451 183.273C167.957 183.352 168.424 183.225 168.719 183.114C169.043 182.992 169.389 182.801 169.68 182.541C169.902 182.344 170.436 181.802 170.393 180.968C170.392 180.948 170.391 180.928 170.389 180.908C170.083 177.573 169.773 174.298 169.464 171.031C169.319 169.497 169.174 167.965 169.03 166.429C169.51 167.122 169.989 167.819 170.469 168.519L170.48 168.536C171.322 169.729 172.153 170.916 172.986 172.104C173.743 173.184 174.501 174.266 175.269 175.356L175.279 175.371C175.353 175.472 175.497 175.714 175.75 176.138C175.979 176.523 176.265 177.001 176.568 177.463C176.866 177.917 177.214 178.409 177.58 178.807C177.762 179.006 177.984 179.22 178.24 179.397C178.474 179.56 178.859 179.777 179.352 179.812C179.982 179.861 180.56 179.622 180.939 179.383C181.293 179.159 181.88 178.675 182.037 177.883C182.2 177.116 182.137 176.312 182.062 175.688C182.029 175.412 181.987 175.134 181.951 174.886C181.944 174.842 181.938 174.799 181.931 174.756C181.888 174.465 181.855 174.223 181.836 174.011L181.833 173.986C181.71 172.82 181.586 171.641 181.463 170.462C181.334 169.231 181.205 167.999 181.075 166.781C180.894 164.986 180.699 163.158 180.505 161.335C180.326 159.661 180.149 157.991 179.981 156.354C179.98 156.338 179.978 156.322 179.976 156.306C179.918 155.879 179.708 155.471 179.346 155.178C179.017 154.911 178.66 154.817 178.408 154.785C177.925 154.724 177.477 154.84 177.173 154.954C176.848 155.076 176.494 155.27 176.195 155.541C175.947 155.766 175.449 156.311 175.495 157.13Z" fill="#330F0F" stroke="#330F0F" stroke-width="3" stroke-linecap="round" stroke-linejoin="round"/>
<path d="M198.364 151.884C197.04 149.357 195.023 149.847 193.539 152.099C191.115 155.756 190.8 160.945 190.426 165.148C190.111 169.009 189.975 172.94 190.059 176.802C190.095 177.714 191.574 177.307 191.558 176.592C191.461 173.212 191.566 169.852 191.807 166.534C194.513 165.675 197.186 164.827 199.856 163.982C200.399 167.103 200.842 170.298 201.165 173.486C201.25 174.303 202.739 173.652 202.636 172.922C202.357 170.001 201.952 167.075 201.475 164.171C200.824 160.158 200.276 155.556 198.364 151.884ZM191.897 165.504C192.097 162.718 192.417 159.933 193.042 157.219C193.237 156.279 194.364 151.249 195.915 151.341C197.114 151.459 197.934 155.1 198.129 155.882C198.803 158.244 199.282 160.625 199.699 163.067C197.101 163.889 194.505 164.714 191.871 165.552C191.861 165.514 191.897 165.504 191.897 165.504Z" fill="#330F0F"/>
</svg>
